<?xml version="1.0" encoding="utf-8"?>
<!-- Generator: Adobe Illustrator 17.0.0, SVG Export Plug-In . SVG Version: 6.00 Build 0)  -->
<!DOCTYPE svg PUBLIC "-//W3C//DTD SVG 1.1//EN" "http://www.w3.org/Graphics/SVG/1.1/DTD/svg11.dtd">
<svg version="1.1" id="Layer_1" xmlns="http://www.w3.org/2000/svg" xmlns:xlink="http://www.w3.org/1999/xlink" x="0px" y="0px"
	 width="500px" height="500px" viewBox="0 0 500 500" enable-background="new 0 0 500 500" xml:space="preserve">
<g>
	<path display="none" fill="#FFFFFF" d="M271.695,19.159c72.893,0,145.786,0.055,218.678-0.13c4.643-0.012,5.58,0.936,5.575,5.577
		c-0.155,148.379-0.155,296.759,0,445.138c0.005,4.641-0.933,5.579-5.575,5.575c-158.756-0.153-317.511-0.153-476.267,0
		c-4.641,0.004-5.638-0.924-5.584-5.576c0.288-25.159,0.137-50.323,0.137-75.486c1.992-0.578,2.406,0.965,3.03,2.234
		c0.64,2.353,1.426,4.645,2.941,6.617c1.798,3.134,4.486,5.649,6.157,8.874c4.573,28.22,23.411,44.781,46.891,57.661
		c4.902,2.689,9.998,1.812,15.099,1.881c2.96-0.059,5.914,0.051,8.872-0.059c4.074-0.201,8.144,0.184,12.216-0.069
		c4.729-0.054,9.456,0.288,14.182-0.115c10.308,0.172,20.614,0.266,30.922,0.102c20.637,0.042,41.272,0.222,61.907-0.099
		c18.599,0.093,37.199,0.141,55.797-0.024c8.422,0.422,16.85,0.11,25.275,0.173c13.34,0.05,26.681,0.016,40.019,0.003
		c6.763,0.05,13.529,0.034,20.292,0.013c5.179,0.053,10.36,0.026,15.538-0.027c4.108,0.163,8.219-0.028,12.326-0.01
		c3.06,0.124,6.126,0.102,9.187,0.108c2.061,0.006,4.127,0.037,6.187,0.054c8.932,1.275,16.482-1.708,24.067-6.402
		c20.293-12.56,35.375-28.601,38.852-53.272c0.955-3.86,4.149-6.119,6.433-9.028c1.954-2.227,2.587-4.94,2.844-7.793
		c4.763-15.95-5.071-25.279-15.586-34.244c-2.939-2.506-6.609-4.124-9.002-7.317c-9.471-11.17-21.833-18.43-34.395-25.405
		c-2.661-1.478-5.916-2.325-5.496-6.399c0.268-0.702,0.695-1.295,1.264-1.785c3.685-2.219,7.27-4.616,11.035-6.712
		c4.105-2.038,6.884-6.06,11.312-7.619c4.47-1.94,8.568-4.525,12.564-7.283c4.75-2.8,9.344-5.834,13.718-9.195
		c3.198-1.406,5.09-4.308,7.51-6.606c5.015-4.223,9.575-8.903,13.916-13.804c3.524-4.435,6.647-9.133,9.375-14.098
		c3.307-5.764,6.56-11.543,7.588-18.253c1.024-4.172,0.691-8.398,0.526-12.615c-4.947-28.499-26.031-45.64-55.791-45.314
		c-4.532-0.156-8.975,0.473-13.384,1.467c-2.963,0.175-6.073,1.844-8.762-0.839c-2.877-8.591,0.964-16.99,0.705-25.508
		c2.254-10.89-0.383-17.355-9.727-22.967c-15.174-9.113-32.142-12.955-49.282-15.783c-26.828-4.425-53.872-6.726-81.1-6.427
		c-3.413,0.037-6.753-0.384-9.43-2.871c-2.663-14.481-9.911-27.521-13.385-41.69c-2.654-10.823-1.604-21.261,9.504-27.839
		C267.746,32.196,268.618,24.988,271.695,19.159z"/>
	<path display="none" fill="#FFFFFF" d="M8.659,380.25c0-118.131,0.041-236.261-0.132-354.392c-0.008-5.353,0.778-6.898,6.645-6.876
		c71.499,0.271,143,0.176,214.5,0.176c0.36,3.339-2.605,3.556-4.492,4.388c-25.796,11.376-23.953,36.143-8.42,53.618
		c5.089,5.725,8.718,12.155,12.384,18.638c1.693,2.993,3.471,6.65-0.045,9.939c-13.693,3.531-27.688,2.207-41.58,2.738
		c-31.471,1.202-62.827,3.461-93.338,12.156c-7.235,2.062-14.212,4.827-20.817,8.329c-6.468,3.43-12.298,7.783-14.081,15.601
		c0.889,19.266,2.973,38.409,5.534,57.502c0.498,7.327,2.329,14.442,3.54,21.652c3.798,20.178,9.313,39.891,16.187,59.227
		c2.551,9.347,6.855,17.988,10.859,26.752c0.938,2.161,1.958,4.313,1.121,6.765c-6.654,6.204-15.903,6.736-23.608,10.76
		c-13.317,6.954-25.91,14.744-36.136,25.92c-7.85,7.24-17.258,12.835-23.133,22.188C12.431,377.268,12.224,380.572,8.659,380.25z"/>
	<path fill="#B3B3B3" d="M8.659,380.25c5.683-12.269,15.977-20.125,26.539-27.724c4.925-4.418,10.758-7.277,16.79-9.805
		c8.395-3.088,16.638-6.587,25.163-9.33c8.228-1.287,15.825-5.204,24.213-5.832c1.604,0.167,3.12,0.797,3.981,2.09
		c7.396,11.108,15.373,21.799,23.186,32.609c0.628,0.868,0.558,1.937,0.202,2.954c-2.005,2.953-5.339,2.913-8.304,3.575
		c-22.783,5.089-45.321,10.899-66.391,21.336c-9.578,4.744-18.668,10.112-25.732,18.36c-1.209,1.412-2.695,2.418-4.628,2.569
		c-5.396-0.359-7.007-5.382-10.281-8.356c-1.053-1.86-2.076-3.742-3.041-5.655c-0.04-1.248-0.378-2.314-1.696-2.784
		C8.659,389.589,8.659,384.919,8.659,380.25z"/>
	<path fill="#F9F8F7" d="M271.695,19.159c0.883,9.685-3.864,15.978-12.039,20.375c-5.849,3.146-9.003,16.744-5.528,25.144
		c3.501,8.462,4.936,17.668,9.783,25.661c2.655,4.377,1.38,9.568,1.557,14.425c-1.083,0.853-2.221,0.878-3.406,0.235
		c-4.222-13.523-9.431-26.69-14.292-39.987c-3.974-10.872-1.45-21.6,7.513-29.77c4.93-4.494,7.881-9.275,5.516-16.084
		C264.432,19.159,268.064,19.159,271.695,19.159z"/>
	<path fill="#EAE4DF" d="M260.801,19.159c7.315,6.463,2.359,11.383-2.484,15.552c-7.965,6.859-10.991,15.338-9.914,25.482
		c0.579,5.451,3.409,10.182,5.47,15.151c3.931,9.479,8.244,18.853,8.494,29.397c0.551,0.772,0.429,1.416-0.367,1.934
		c-1.795,0.102-2.964-0.817-3.788-2.306c-1.454-3.142-0.213-6.973-2.545-9.896c-2.46-7.888-6.308-15.214-9.265-22.892
		c-5.143-13.354-5.633-26.169,5.486-37.215c0.905-0.899,1.629-1.995,2.431-3.004c1.44-1.813,3.298-3.61,1.662-6.149
		c-1.426-2.212-3.821-2.543-6.192-2.333c-5.662,0.501-11.138,2.017-16.645,3.328c-2.219,0.528-4.295,1.902-6.719,0.939
		c-1.85-4.6,2.106-4.976,4.646-5.99c2.513-1.003,5.513-0.404,7.94-1.997C246.274,19.159,253.537,19.159,260.801,19.159z"/>
	<path fill="#F4F2F0" d="M239.01,19.159c-2.776,4.819-10.921,0.978-12.489,7.745c-1.195,2.113-3.324,2.686-5.419,3.317
		c-5.248,1.313-7.627,5.364-9.456,9.94c-7.405,13.296,0.523,23.649,6.806,34.125c3.153,5.257,8.018,9.363,11.046,14.801
		c1.42,2.955,3.104,5.8,4.103,8.923c0.857,2.681,1.475,5.475-1.663,7.327c-0.845,0.149-1.603-0.046-2.272-0.583
		c-1.618-10.276-7.523-18.152-14.057-25.805c-8.999-10.541-14.792-22.075-10.909-36.659c2.398-9.006,8.485-14.425,16.134-18.654
		c2.888-1.597,5.89-2.99,8.84-4.476C232.785,19.159,235.898,19.159,239.01,19.159z"/>
	<path fill="#B3B3B3" d="M444.378,352.53c5.431,4.753,11.741,8.358,16.785,13.678c8.091,8.533,12.106,17.92,8.212,29.642
		c-1.259,2.121-1.648,4.638-3.056,6.696c-3.454,2.693-5.139,7.642-10.349,8.097c-7.512-3.68-12.261-10.8-19.432-15.113
		c-24.565-14.775-51.762-21.518-79.361-27.261c-3.963-0.825-8.33-0.594-11.3-4.143c2.373-9.105,8.884-14.631,16.564-19.148
		c3.559-2.41,7.739-3.799,11.013-6.693c4.364-2.764,8.789-5.418,13.561-7.454c0.747-0.239,1.508-0.376,2.287-0.448
		c11.105,1.336,21.049,6.492,31.623,9.581C429.035,343.602,437.662,346.287,444.378,352.53z"/>
	<path fill="#E6E5E5" d="M229.665,104.752c0.521,0.005,1.042,0.01,1.563,0.015c-0.953,5.207-5.188,5.051-8.939,5.179
		c-12.108,0.412-24.224,0.385-36.339,0.223c-3.345-0.045-6.702-0.405-9.957,0.696c-5.277,1.494-10.848-0.112-16.115,1.524
		c-4.629,1.158-9.497,0.195-14.099,1.605c-4.074,1.049-8.383,0.134-12.419,1.507c-3.553,0.921-7.322,0.282-10.83,1.522
		c-12.691,2.626-25.248,5.716-37.184,10.893c-4.188,2-7.991,4.606-11.595,7.505c-2.306,2.578-4.375,5.191-1.807,8.767
		c2.31,2.909,4.778,5.636,8.098,7.445c1.636,0.836,3.328,1.534,4.993,2.307c17.38,8.372,36.198,11.054,54.957,13.971
		c4.635-0.009,9.158,0.947,13.726,1.516c3.413,0.322,6.874-0.031,10.254,0.73c3.334,1.187,6.801,0.97,10.252,0.954
		c5.883,0.153,11.827-0.564,17.588,1.258c6.573,0.555,13.153,0.168,19.731,0.239c17.172,0.037,34.34,0.001,51.503,0
		c6.489-0.271,13.047,0.868,19.465-0.929c5.404-0.987,10.863-0.477,16.297-0.579c3.394-0.006,6.816,0.281,10.122-0.837
		c3.632-0.87,7.466-0.294,11.045-1.561c4.002-1.007,8.227-0.164,12.19-1.5c1.6-0.403,3.226-0.632,4.867-0.745
		c17.314-2.112,34.234-5.856,50.512-12.209c5.218-2.357,9.858-5.532,13.71-9.805c3.237-3.572,1.056-6.368-1.31-9.122
		c-2.488-3.048-5.839-4.829-9.367-6.354c-4.912-2.766-10.232-4.457-15.619-5.992c-10.75-4.22-22.346-4.559-33.413-7.311
		c-4.046-1.284-8.337-0.754-12.434-1.657c-5.08-1.441-10.392-0.455-15.514-1.455c-6.115-1.812-12.526-0.278-18.68-1.637
		c-9.565-1.901-19.281,0.147-28.873-1.101c-1.779-0.578-3.839-0.87-3.696-3.483c0.006-0.529,0.012-1.057,0.018-1.586
		c1.034,0.007,2.068,0.015,3.102,0.023c4.966,1.785,10.132,1.473,15.285,1.585c37.325,0.813,74.441,3.193,110.234,15.174
		c6.653,2.227,12.827,5.366,18.59,9.354c7.392,5.116,9.927,13.089,7.009,22.201c-1.887-1.713-2.11-3.578-0.567-5.672
		c-7.496,8.948-18.096,12.35-28.559,16c-2.368,0.748-4.76,1.43-7.13,2.177c-1.318,0.427-2.639,0.85-3.978,1.212
		c-0.998,0.274-2.012,0.481-3.022,0.708c-1.349,0.361-2.686,0.767-4.056,1.052c-2.127,0.355-4.245,0.738-6.313,1.378
		c-1.845,0.445-3.72,0.659-5.603,0.831c-3.451,0.661-6.879,1.452-10.395,1.695c-3.447,1.055-7.002,1.244-10.566,1.351
		c-1.963,0.072-3.821,0.741-5.744,1.051c-2.327,0.367-4.68,0.367-7.023,0.515c-1.981,0.142-3.852,0.855-5.807,1.137
		c-2.812,0.401-5.642,0.355-8.47,0.386c-1.997-0.069-3.997-0.009-5.995-0.013c-2.423-0.09-4.708,0.695-7.05,1.135
		c-2.038,0.336-4.091,0.424-6.151,0.412c-2.515,0.035-5.028,0.09-7.543,0.038c-2.13,0.061-4.259,0.082-6.388,0.012
		c-2.588,0.027-5.174,0.123-7.761,0.02c-3.472,0.048-6.944,0.067-10.416,0.07c-3.076-0.288-6.077,0.107-9.027,1.005
		c-7.681,0.907-15.362,0.951-23.042,0.024c-2.959-0.866-5.966-1.333-9.063-1.023c-3.933,0.057-7.864-0.114-11.796-0.027
		c-2.604,0.136-5.205-0.159-7.808-0.026c-2.138,0.051-4.277,0.01-6.413-0.049c-2.519,0.03-5.039,0.032-7.558-0.029
		c-2.06,0.005-4.121,0.006-6.174-0.194c-2.412-0.146-4.656-1.223-7.089-1.254c-1.977-0.111-3.954-0.194-5.936-0.126
		c-2.396-0.004-4.792,0.007-7.182-0.185c-2.371-0.182-4.61-1.064-6.972-1.301c-1.959-0.093-3.918-0.162-5.873-0.334
		c-1.987-0.147-3.859-0.869-5.823-1.138c-4.03-0.092-7.969-0.845-11.91-1.582c-4.888-0.106-9.594-1.498-14.425-1.99
		c-3.471-0.765-6.904-1.694-10.345-2.584c-2.678-0.397-5.335-0.887-7.84-1.969c-3.076-1.406-6.475-1.881-9.565-3.253
		c-10.202-4.527-21.45-7.542-27.145-18.634c1.997-10.184,10.05-14.894,18.262-18.481c22.402-9.786,46.205-13.685,70.433-16.179
		c24.121-2.483,48.25-2.95,72.434-3.328C221.922,105.86,225.777,104.658,229.665,104.752z"/>
	<path fill="#646464" d="M266.778,473.376c-18.497-0.001-36.994-0.002-55.49-0.003c-6.571-1.222-13.211-0.163-19.803-0.588
		c-18.868-1.146-37.556-3.535-55.993-7.838c-16.433-3.836-32.56-8.602-48.123-15.163c-2.85-1.202-5.797-2.384-7.372-5.388
		c-0.335-1.626,0.595-2.416,1.935-2.938c16.074,3.61,32.792,4.326,48.267,10.64c0.015,2.206,1.729,2.099,3.229,2.432
		c24.744,5.502,49.686,9.223,75.029,11.113c17.019,1.27,33.965,2.094,50.92,0.977c28.866-1.902,57.648-4.755,85.789-12.02
		c3.764-0.972,7.557-1.783,10.704-4.266c11.488-4.078,23.561-5.507,35.448-7.817c1.81,0.306,3.505,0.762,3.727,3.024
		c-1.297,3.251-4.368,4.159-7.177,5.394c-25.463,11.19-52.364,16.703-79.786,20.112c-2.046,0.254-4.071,0.583-6.106,0.911
		C290.244,472.546,278.496,472.59,266.778,473.376z"/>
	<path fill="#F1F1F1" d="M130.45,453.223c-12.776-2.651-25.564-5.241-38.318-7.994c-3.393-0.732-6.679-1.96-10.014-2.96
		c-2.294-0.842-4.462,1.112-6.754,0.323c-4.079-1.748-8.361-2.972-12.473-4.646c-2.842-1.616-6.22-1.848-9.068-3.449
		c-2.44-1.382-5.026-2.431-7.686-3.31c-2.185-0.985-4.364-1.988-6.622-2.8c-1.528-0.609-2.734-1.691-3.949-2.693
		c-2.872,0.371-0.444,1.782-0.298,2.394c0.472,1.987,1.606,3.904-0.466,5.658c-5.99,0.052-5.356-6.214-8.506-8.874
		c-2.335-4.452-3.76-9.36-6.742-13.493c-3.402-1.534-4.741-4.721-6.235-7.783c-0.448-0.409-0.584-0.802-0.408-1.178
		c0.172-0.368,0.338-0.552,0.499-0.552c3.009,2.69,6.018,5.38,9.027,8.069c4.231,1.69,7.823,4.472,11.681,6.805
		c3.361,2.575,7.163,4.353,10.994,6.084c4.423,2.562,9.261,4.154,13.992,6c5.937,2.396,12.085,4.162,18.161,6.144
		c3.575,1.427,7.305,2.319,11.043,3.187c5.608,2.046,11.525,2.825,17.292,4.215c5.534,1.333,11.123,2.387,16.729,3.359
		c5.648,1.279,11.28,2.637,17.108,2.839c4.093,1.044,8.328,1.108,12.475,1.779c4.57,1.194,9.333,0.643,13.939,1.515
		c5.466,1.455,11.166,0.423,16.665,1.539c2.94,1.009,5.977,1.071,9.041,0.914c4.598,0.048,9.192,0.126,13.789-0.074
		c23.504,2.41,47.002,2.147,70.496-0.071c17.682,0.654,35.083-2.402,52.583-4.068c9.512-1.038,18.918-2.818,28.363-4.3
		c5.666-1.046,11.36-1.975,16.927-3.507c5.687-1.85,11.82-1.824,17.393-4.153c3.667-1.239,7.453-2.063,11.152-3.191
		c6.125-1.789,12.168-3.832,18.14-6.073c3.644-1.524,7.466-2.615,10.972-4.479c3.137-1.44,6.256-2.92,9.287-4.576
		c1.805-0.912,3.475-2.045,5.129-3.205c3.85-2.092,6.997-5.387,11.327-6.66c3.016-2.704,6.031-5.407,9.047-8.111
		c0.495,0.363,0.673,0.743,0.537,1.141c-0.139,0.406-0.286,0.609-0.441,0.609c-2.079,2.592-4.158,5.185-6.237,7.777
		c-3.595,5.374-6.572,11.056-9.242,16.958c-1.072,2.37-1.626,6.641-6.297,4.959c-1.574-1.904-0.383-3.706,0.062-5.638
		c1.003-4.354-1.489-1.132-2.525-1.049c-2.068,1.348-4.397,2.097-6.622,3.076c-2.281,0.962-4.457,2.148-6.726,3.139
		c-3.433,1.13-6.657,2.793-10.074,3.963c-4.805,1.661-9.789,2.843-14.26,5.394c-2.114,0.689-4.341,0.884-6.476,1.497
		c-2.094,0.851-4.353-1.421-6.4,0.355c-11.398,2.561-22.795,5.122-34.193,7.684c-16.687,5.839-34.17,6.887-51.554,8.453
		c-3.331,0.3-6.694,0.149-9.927,1.237c-37.305,2.757-74.608,2.809-111.909,0.018c-12.351-1.98-24.966-1.766-37.248-4.265
		C141.196,456.052,135.452,456.122,130.45,453.223z"/>
	<path fill="#E5E5E5" d="M436.677,176.349c29.084-3.039,52.201,19.847,57.549,46.693c-4.632,1.064-7.642-1.985-10.713-4.485
		c-2.634-2.145-5.29-3.945-8.754-4.251c-5.407-7.447-13.52-11.642-20.596-17.091c-3.068-6.225-9.359-9.121-14.072-13.644
		C438.058,181.618,434.557,180.293,436.677,176.349z"/>
	<path fill="#BDBDBD" d="M386.826,162.279c9.956-4.704,20.94-7.529,29.217-17.239c0.243,3.609,0.392,5.823,0.542,8.038
		c-0.559,8.797-1.119,17.593-1.678,26.39c1.512,7.179-0.49,14.04-1.875,20.958c-1.903,3.299-5.216,3.882-6.578,0.684
		C400.749,187.72,391.708,176.048,386.826,162.279z"/>
	<path fill="#F9F9F9" d="M444.459,433.169c4.443-1.486,5.526-5.92,6.586-9.332c1.678-5.397,4.451-9.406,8.974-12.462
		c0.837,27.913-39.49,65.844-63.81,62.261c0.253-4.223,4.105-3.842,6.611-4.945c6.502-2.861,13.244-5.244,17.875-11.078
		c0.299-1.021,0.671-2.009,1.169-2.948c6.094-5.79,12.479-11.276,18.391-17.261c1.319-1.039,2.362-2.339,3.382-3.662
		C443.908,433.546,444.184,433.357,444.459,433.169z"/>
	<path fill="#EDECEC" d="M441.348,437.838c-5.284,6.735-11.252,12.723-18.679,17.121c-12.174,10.351-26.572,15.694-42.023,18.668
		c-4.156-0.007-8.312-0.013-12.469-0.02c0.379-4.986,4.872-4.867,7.934-5.771c14.695-4.336,27.952-11.665,41.249-18.979
		c10.197-5.609,17.811-13.799,23.982-23.489c1.842-1.822,4.281-4.185,6.486-2.278c2.352,2.035-1.589,3.633-1.987,5.739
		c-0.28,1.481-0.909,2.895-1.383,4.339C443.167,434.555,442.91,436.631,441.348,437.838z"/>
	<path fill="#CAC7C7" d="M417.973,434.872c3.819-0.496,6.788-3.776,10.895-3.331c3.719,3.334-0.202,4.888-1.801,6.524
		c-11.509,11.775-26.335,18.053-41.162,24.192c-17.112,7.084-35.083,10.377-53.528,11.28c-13.47-0.015-26.94-0.03-40.41-0.045
		c4.763-4.605,10.931-1.295,16.298-2.826c2.873-0.82,6.183,0.222,9.109-1.176c1.249-0.428,2.551-0.46,3.847-0.494
		c4.102-0.374,8.261-0.265,12.295-1.314c0.782-0.252,1.583-0.413,2.394-0.522c14.338-1.657,28.397-4.486,41.817-9.962
		c12.434-5.721,25.741-9.714,36.621-18.56C415.746,437.503,417.51,436.859,417.973,434.872z"/>
	<path fill="#FAFAFA" d="M19.553,411.38c5.497,2.335,5.994,7.797,7.784,12.45c2.718,8.515,8.582,14.308,14.903,20.534
		c6.976,6.871,13.919,13.283,22.339,18.207c3.776,2.208,7.515,4.382,11.633,5.952c2.39,0.911,5.821,1.15,5.599,5.111
		c-12.646,2.173-21.174-6.08-30.504-12.16C33.129,449.628,21.752,433.394,19.553,411.38z"/>
	<path fill="#DCDADA" d="M39.789,426.945c2.465,0.24,4.632,1.082,6.223,3.085c3.616,2.024,6.513,4.925,9.618,7.613
		c16.053,13.895,34.605,22.627,55.532,26.3c10.994,2.61,21.974,5.226,33.261,6.281c1.955,0.183,4.264,0.435,4.337,3.322
		c-10.381,0.014-20.762,0.028-31.142,0.042c-15.734-3.164-30.769-8.243-44.832-16.098c-2.243-1.253-4.722-2.079-6.646-3.869
		c-2.252-2.329-4.919-4.011-8.007-5.025c-1.671-0.712-2.969-1.872-4.015-3.333c-1.455-2.474-3.741-3.894-6.323-4.948
		C44.609,436.169,38.257,433.911,39.789,426.945z"/>
	<path fill="#E0E0E0" d="M492.719,237.071c0.104,7.353-4.034,12.945-7.763,18.706c-5.949-1.418-10.332-4.923-13.47-10.1
		c0.526-6.786,2.536-13.188,5.076-19.455C482.886,225.722,489.47,230.144,492.719,237.071z"/>
	<path fill="#F5F5F4" d="M81.812,473.634c-10.413-5.988-22.747-9.365-31.037-18.104c-8.223-8.67-19.325-15.104-23.611-27.286
		c-0.583-1.659-0.47-2.965,0.173-4.414c3.643,2.238,3.122,7.947,7.782,9.337c1.423-0.644,2.653-0.059,3.333,1.047
		c9.44,15.341,25.368,21.839,40.323,29.648c3.186,1.664,6.51,3.071,9.722,4.686c1.968,0.99,4.602,1.919,2.659,5.081
		C88.041,473.63,84.927,473.632,81.812,473.634z"/>
	<path fill="#E0E1E0" d="M411.708,201.271c0.231-7.391,0.989-14.704,3.198-21.804c2.587-0.511,5.174-1.021,7.76-1.532
		c3.386,3.078,7.413,5.398,10.532,8.782c2.61,2.831,4.458,5.812,0.579,9.109c-7.719,2.101-14.143,7.537-22.241,8.681
		C410.774,203.385,410.947,202.312,411.708,201.271z"/>
	<path fill="#DCDAD9" d="M332.376,473.538c6.282-2.443,13.036-2.273,19.537-3.51c21.005-3.997,40.757-11.547,59.272-22.007
		c6.965-3.935,13.963-8.666,17.682-16.478c1.632-1.933,3.767-2.84,6.238-3.059c3.5,1.355,1.527,3.465,0.406,4.951
		c-3.095,4.105-6.622,7.792-10.903,10.781c-21.787,15.212-45.608,25.378-71.963,29.363
		C345.89,473.565,339.133,473.551,332.376,473.538z"/>
	<path fill="#C9C6C6" d="M148.762,473.546c-8.235-1.503-16.482-2.941-24.699-4.535c-4.768-0.926-9.487-2.104-14.228-3.169
		c-2.754-1.935-7.652-0.87-8.213-5.882c0.483-0.768,1.156-1.27,2.026-1.526c10.817-0.246,20.566,4.554,30.914,6.57
		c18.697,3.643,37.617,5.122,56.517,6.909c6.74,0.436,13.583-0.57,20.208,1.459C190.446,473.43,169.604,473.488,148.762,473.546z"/>
	<path fill="#EEECEC" d="M91.156,473.628c-0.03-3.286-2.991-3.054-4.899-3.998c-15.231-7.532-30.777-14.427-43.517-26.236
		c-3.312-3.07-3.559-8-7.62-10.227c-0.82-2.064-1.561-4.165-2.49-6.178c-0.582-1.26-2.546-2.427-1.135-3.811
		c1.639-1.608,3.651-1.186,5.173,0.667c4.021,12.301,13.526,19.51,23.996,25.825c11.478,7.799,23.516,14.41,36.905,18.446
		c2.536,0.765,6.667,0.818,6.037,5.502C99.455,473.621,95.306,473.625,91.156,473.628z"/>
	<path fill="#E0DEDD" d="M352.646,473.579c12.872-4.119,25.989-7.609,38.553-12.517c15.605-6.095,29.998-14.548,41.854-26.716
		c1.513-1.553,3.567-3.146,2.053-5.863c2.079-1.038,4.158-2.077,6.236-3.115c-1.041,9.611-8.469,14.887-15.122,19.731
		c-14.471,10.534-30.517,18.4-47.668,23.863c-3.597,1.146-7.639,1.498-10.375,4.645C363,473.597,357.823,473.588,352.646,473.579z"
		/>
	<path fill="#E3E3E3" d="M433.557,194.988c3.28-5.54-2.131-7.198-4.715-9.752c-2.307-2.28-5.99-3.239-6.176-7.301
		c4.549-1.598,9.254-1.821,14.011-1.586c1.591,5.806,7.405,7.352,11.16,10.968c2.915,2.808,6.886,4.667,7.513,9.296
		C447.847,199.276,440.631,198.086,433.557,194.988z"/>
	<path fill="#D9D9D8" d="M475.566,269.714c-4.025,5.304-8.591,10.068-13.995,13.993c-3.857-4.103-8.872-6.841-12.809-10.857
		c3.319-6.335,8.815-10.509,14.446-14.557C468.7,260.612,473.829,263.329,475.566,269.714z"/>
	<path fill="#FAFAF9" d="M444.378,352.53c-7.784-3.628-15.568-7.256-23.352-10.885c-5.886-3.563-12.119-6.447-18.331-9.374
		c-2.704-1.274-6.086-1.995-5.691-6.165c1.657-2.583,3.277-5.229,7.001-4.803c2.257,6.512,9.295,6.293,13.848,9.601
		C427.117,337.637,437.425,342.98,444.378,352.53z"/>
	<path fill="#D3D3D3" d="M453.877,290.098c-4.054,4.043-8.537,7.441-14.029,9.318c-4.685-2.971-10.363-4.914-11.731-11.328
		c3.546-5.411,8.191-9.231,14.804-10.207C447.889,280.768,453.991,282.649,453.877,290.098z"/>
	<path fill="#DDDDDC" d="M475.566,269.714c-4.127-3.619-8.253-7.238-12.38-10.857c1.151-5.582,2.933-10.698,9.219-12.491
		c4.183,3.137,8.367,6.274,12.551,9.411C482.669,260.991,479.567,265.655,475.566,269.714z"/>
	<path fill="#E3E3E3" d="M492.719,237.071c-5.057-3.809-9.337-8.723-15.538-10.902c-2.697-3.873-4.092-7.914-1.596-12.453
		c3.199-2.684,5.399,0.168,7.084,1.866c3.363,3.388,7.419,5.424,11.557,7.46C493.629,227.709,495.783,232.67,492.719,237.071z"/>
	<path fill="#D0D0D0" d="M428.886,288.367c2.357,4.968,8.871,5.812,10.961,11.047c-3.428,3.775-7.801,5.991-12.538,7.607
		c-4.997-2.563-10.45-4.651-11.643-11.183C418.812,291.121,422.813,287.908,428.886,288.367z"/>
	<path fill="#C9C8C8" d="M404.004,321.303c-2.071,1.533-4.141,3.065-6.212,4.598c-0.971,1.181-1.888,2.502-3.73,1.444
		c-2.926-2.867-5.62-5.954-8.939-8.445c-2.444-1.834-5.02-3.944-3.109-7.695c2.825-2.434,6.041-3.93,9.813-4.116
		c5.273,0.447,8.896,3.888,12.589,7.098c2.129,1.85,3.105,4.154,1.124,6.812C405.028,321.099,404.516,321.201,404.004,321.303z"/>
	<path fill="#CBCBCB" d="M405.541,320.997c-1.526-7.691-7.684-10.124-14.022-12.351c1.925-6.085,7.316-6.45,12.315-7.474
		c4.819,1.376,7.926,5.215,11.578,8.228c1.538,1.269,2.687,3.141,1.01,5.281C412.795,316.786,409.168,318.891,405.541,320.997z"/>
	<path fill="#CECDCD" d="M416.422,314.68c-1.819-6.434-8.526-7.913-12.417-12.246c2.323-5.661,6.668-7.376,12.413-6.36
		c2.019,5.253,8.468,6.099,10.891,10.948C423.68,309.574,420.051,312.127,416.422,314.68z"/>
	<path fill="#E7E6E5" d="M103.605,473.617c-2.138-3.96-6.415-3.787-9.91-4.943c-11.158-3.692-21.254-9.444-31.14-15.624
		c-1.022-0.639-1.701-1.824-2.539-2.756c0.252-0.227,0.504-0.453,0.755-0.681c2.248-0.295,3.779,1.171,5.474,2.233
		c14.155,7.874,28.828,14.529,44.573,18.55c2.54,0.649,5.02,1.08,6.8,3.193C112.948,473.598,108.277,473.607,103.605,473.617z"/>
	<path fill="#D5D5D5" d="M453.877,290.098c-2.303-5.091-7.071-7.712-11.096-11.078c0.114-4.124,1.991-6.428,6.36-6.159
		c5.464,2.103,10.668,4.502,12.43,10.847C459.093,285.941,457.987,289.828,453.877,290.098z"/>
	<path fill="#F1F0EF" d="M380.646,473.627c14.434-5.263,28.362-11.666,42.023-18.668c-0.001,1.037-0.001,2.074-0.002,3.111
		c-10.414,6.197-20.975,12.087-32.685,15.563C386.87,473.631,383.758,473.629,380.646,473.627z"/>
	<path fill="#F7F6F6" d="M389.983,473.632c11.031-4.902,21.085-11.855,32.685-15.563c-4.013,6.658-11.361,8.298-17.583,11.598
		c-2.856,1.515-5.91,2.657-8.874,3.968C394.134,473.635,392.058,473.634,389.983,473.632z"/>
	<path fill="#C2BFBE" d="M318.393,470.527c-4.883,3.162-10.32,0.837-15.448,1.561c-3.654,0.516-7.602-1.262-10.979,1.406
		c-8.395-0.04-16.792-0.079-25.188-0.118c11.929-0.987,23.858-1.973,35.787-2.959C307.847,469.572,313.127,469.078,318.393,470.527z
		"/>
	<path fill="#F9F9F9" d="M466.256,403.598c-0.032-0.583-0.063-1.165-0.096-1.749c0.51-2.302,1.379-4.409,3.214-6
		C469.456,398.883,468.71,401.584,466.256,403.598z"/>
	<path fill="#FAFAFA" d="M13.409,401.866c-0.03,0.577-0.06,1.154-0.09,1.731c-2.057-1.7-3.027-3.891-2.965-6.552
		C12.035,398.231,13.179,399.759,13.409,401.866z"/>
	<path fill="#BDBDBD" d="M363.528,346.011c-7.309,4.104-11.933,10.894-17.123,17.118c-0.753,1.324-1.234,2.809-2.324,3.936
		c-0.938,1.268-1.868,2.543-3.091,3.565c-1.292,1.099-2.261,2.472-3.28,3.825c-0.488,0.592-1.021,1.117-1.597,1.619
		c-21.754,18.593-46.34,31.376-74.95,34.934c-39.815,4.952-77.339-1.115-110.719-25.069c-2.746-1.97-5.333-4.101-7.728-6.462
		c-1.085-0.986-2.211-1.934-3.414-2.781c-2.465-1.884-4.543-4.188-6.768-6.336c-1.51-1.769-3.577-3.152-4.024-5.675
		c-8.796-11.921-17.592-23.842-26.387-35.764c-1.788-1.483-2.951-3.41-3.916-5.479c-0.573-1.119-1.102-2.263-1.623-3.409
		c-0.539-1.149-0.769-2.36-0.685-3.628c-0.578-2.022-1.155-4.044-1.733-6.066c2.758-1.694,2.811-1.758,5.82,0.699
		c7.929,6.475,15.812,13.002,24.427,18.581c3.674,2.379,7.414,4.556,11.736,5.526c6.208,2.583,9.532,8.578,14.679,12.411
		c1.767,1.316,3.368,4.531,6.193,1.271c6.701-0.485,12.569,2.696,18.766,4.301c61.178,15.84,119.435,9.742,174.234-22.843
		c6.911-4.11,13.169-9.135,19.392-14.199c2.176-1.771,4.116-4.074,7.41-3.458c3.684,3.631,0.078,6.609-0.862,9.83
		c-2.173,3.46-3.1,7.496-5.005,11.083C368.42,337.659,365.423,341.506,363.528,346.011z"/>
	<path fill="#C2C1C1" d="M94.252,164.011c2.415,1.354,5.055,1.587,7.748,1.556c1.409,5.281-3.724,5.449-6.053,7.808
		c-1.797,2.457-1.118,5.668-2.505,8.247c-20.574,28.904-19.511,72.483,2.917,103.44c6.479,8.943,12.581,18.471,22.868,23.863
		c4.233,4.15,8.226,8.443,8.24,14.924c-3.912,1.9-6.159-1.283-8.647-3.089c-14.05-10.2-25.057-23.375-35.637-36.945
		c-8.178-18.985-12.614-39.027-16.728-59.161c2.16-2.207,2.133-5.181,2.58-7.907c2.624-16.025,9.482-30.341,17.684-44.104
		C88.681,169.347,90.809,166.073,94.252,164.011z"/>
	<path fill="#BDBDBD" d="M57.061,143.905c7.907,7.921,17.317,13.377,27.855,16.984c2.327,3.119,0.758,5.939-0.924,8.514
		c-5.913,9.053-10.9,18.566-15.034,28.558c-1.021,2.467-2.009,5.532-5.848,4.865c-3.08-10.686-2.903-21.827-4.436-32.73
		C57.461,161.461,57.55,152.642,57.061,143.905z"/>
	<path fill="#C0BFBF" d="M63.11,202.826c3.15-1.531,3.638-4.71,4.882-7.527c3.958-8.963,8.021-17.894,13.793-25.896
		c1.848-2.562,3.37-5.205,3.131-8.515c3.112,1.041,6.224,2.081,9.336,3.123c-3.218,6.968-8.176,12.874-11.66,19.749
		c-5.751,11.349-9.973,23.011-12,35.58c-0.283,1.754,1.019,6.607-4.14,5.314C65.229,217.395,62.576,210.355,63.11,202.826z"/>
	<path fill="#C0C0BF" d="M83.182,283.815c5.639,0.437,6.971,5.878,9.732,9.167c10.034,11.955,20.832,22.901,34.137,31.202
		c5.759,2.158,9.815,5.6,9.367,12.434c-11.859-1.69-19.431-10.675-28.705-16.787c-4.61-3.039-7.52-8.496-13.545-9.492
		C89.269,302.009,85.072,293.39,83.182,283.815z"/>
	<path fill="#FAFAFA" d="M95.898,316.405c0.52,1.008,1.04,2.016,1.56,3.024c0.699,3.824-2.337,3.711-4.65,4.592
		c-14.2,5.409-28.077,11.486-40.575,20.306c-5.679,2.731-11.357,5.463-17.036,8.196c9.641-12.204,22.7-19.877,36.297-26.559
		C79.308,322.124,87.743,319.549,95.898,316.405z"/>
	<path fill="#B6B6B6" d="M128.51,364.685c2.097,1.015,3.651,2.573,4.665,4.669c-0.212,4.288-3.662,4.378-6.585,4.907
		c-17.318,3.13-34.309,7.463-50.46,14.533c-13.788,6.035-27.326,12.552-35.845,25.995c-1.489,2.349-3.453,4.811-6.968,2.935
		c-4.388-1.531-8.101-4.007-10.879-7.789c5.737-0.598,6.748-6.551,10.657-9.439c22.763-16.816,49.117-24.536,75.985-31.138
		C115.548,367.769,122.032,366.241,128.51,364.685z"/>
	<path fill="#F5F4F4" d="M52.234,344.328c6.614-8.254,16.276-11.604,25.334-16.047c6.532-3.204,14.011-4.235,19.89-8.851
		c0.521,1.031,1.042,2.062,1.563,3.093c1.62,4.778-2.122,5.668-5.145,6.858c-5.468,2.153-11.203,3.543-16.708,5.607
		C68.857,338.101,60.545,341.214,52.234,344.328z"/>
	<path fill="#EBEAE9" d="M77.168,334.988c4.125-3.477,9.527-3.982,14.258-6.056c3.244-1.423,6.575-2.464,7.594-6.408
		c1.892,1.716,2.865,3.877,3.102,6.397C93.673,330.404,85.804,334.272,77.168,334.988z"/>
	<path fill="#E0D7CF" d="M220.352,28.523c2.057-0.54,4.113-1.079,6.17-1.62c7.706-3.957,16.105-5.23,24.557-6.113
		c3.108-0.325,6.502,0.05,7.832,3.556c1.108,2.92-0.027,5.552-2.377,7.644c-15.259,13.578-13.573,29.12-5.483,45.585
		c2.58,5.25,4.438,10.855,6.627,16.298c1.571,3.098,0.432,6.399,0.722,9.592c-0.065,0.919-0.553,1.456-1.463,1.609
		c-3.87-2.199-2.181-6.519-3.693-9.619c-0.997-6.511-3.713-12.382-6.756-18.136c-7.875-14.895-9.459-29.512,1.706-43.713
		c1.338-1.702,3.557-3.773,1.908-6.207c-1.697-2.505-4.272-0.629-6.458-0.389c-4.694,0.514-9.092,2.027-13.293,4.151
		c-2.148,0.972-4.311,1.898-6.699,2.111c-1.626,0.105-3.184-0.1-4.576-1.034C217.516,30.321,219.115,29.484,220.352,28.523z"/>
	<path fill="#D9D6D2" d="M262.348,106.328c0.67,1.261,1.839,1.516,3.119,1.549c-2.196,10.298-6.713,19.408-13.891,27.166
		c-1.555,0.607-3.059,0.613-4.467-0.401c-1.838-3.422,0.827-5.69,2.178-8.259c3.622-6.888,8.246-13.376,8.393-21.611l0.047-0.033
		c0.514-0.712,1.027-0.745,1.538,0.004C260.292,105.271,261.32,105.799,262.348,106.328z"/>
	<path fill="#E3DCD5" d="M259.263,104.742l-0.769,0.007c0,0-0.769-0.01-0.769-0.01c-0.015-3.622-0.031-7.243-0.047-10.864
		C260.691,97.134,258.624,101.136,259.263,104.742z"/>
	<path fill="#E1E0E0" d="M175.195,109.429c2.03-2.376,4.798-1.499,7.279-1.514c12.941-0.079,25.883-0.06,38.824-0.026
		c3.666,0.01,7.298,0.079,9.93-3.122c4.468-6.29-3.38-10.113-3.117-15.561c0.711-0.546,1.509-0.746,2.395-0.604
		c5.91,4.972,8.215,11.162,5.606,18.574c-1.431,4.064-1.175,8.151-1.236,12.253c-0.084,5.636-1.466,10.722-5.432,14.906
		c-0.648,0.542-1.391,0.906-2.21,1.108c-1.22,0.174-2.369-0.017-3.398-0.729c-1.785-2.717,0.055-4.923,1.241-7.042
		c2.505-4.473,2.684-8.698-0.561-12.838c-10.535-1.989-20.795,0.613-31.093,1.938c-4.827,0.621-9.537,2.126-14.404,2.83
		c-3.301,0.477-6.509,1.763-9.144,3.957c-2.346,1.953-5.36,3.877-4.471,7.483c0.782,3.17,4.086,2.548,6.494,3.104
		c1.274,0.294,2.49,0.651,3.478,1.581c0.342,0.844,0.214,1.603-0.375,2.293c-1.846,1.341-3.986,1.45-6.138,1.526
		c-3.4,0.122-6.8-0.031-10.195-0.064c-7.851-2.22-10.195-7.296-6.517-14.33c3.931-7.519,11.263-10.164,18.624-12.636
		c2.673-0.898,5.554-1,7.985-1.56C177.701,110.759,176.171,110.77,175.195,109.429z"/>
	<path fill="#E6E0DA" d="M229.68,89.198c-0.523,0.003-1.046,0.005-1.568,0.008c-9.024-10.218-17.698-20.671-21.013-34.355
		c-1.397-5.766-0.598-11.125,3.881-15.489c0.279,0.278,0.558,0.555,0.841,0.83c0.247,0.456,0.65,0.979,0.552,1.417
		c-3.844,17.074,6.52,28.7,15.585,40.84C229.43,84.423,231.753,86.276,229.68,89.198z"/>
	<path fill="#EAE4DF" d="M220.352,28.523c-0.517,1.032-1.033,2.064-1.55,3.095c-0.928,4.261-3.595,6.794-7.776,7.82
		c0,0-0.047-0.076-0.047-0.076C211.25,33.281,215.018,30.225,220.352,28.523z"/>
	<path fill="#B6B6B6" d="M343.293,366.245c0.59-1.485,1.625-2.525,3.111-3.115c7.375,4.09,15.847,3.931,23.761,5.829
		c23.192,5.563,45.839,12.104,66.614,24.37c7.753,4.578,13.208,11.528,20.332,16.629c-2.773,3.792-6.529,6.213-10.881,7.803
		c-1.47,0.527-2.616-0.183-3.288-1.288c-11.443-18.845-30.739-25.696-49.883-32.847c-13.573-5.07-27.634-8.149-41.812-10.884
		C347.655,372.048,343.212,371.734,343.293,366.245z"/>
	<path fill="#C6C6C6" d="M374.403,322.659c1.045-3.112,2.089-6.223,3.134-9.335c0.21-1.113,0.856-1.867,1.892-2.302
		c1.092-0.22,2.06-0.056,2.763,0.909c0.268,4.333,4.297,5.219,6.786,7.564c2.325,2.19,5.461,3.931,5.665,7.729
		c-0.421,3.518-3.664,3.403-5.901,4.582c-0.624,0.064-1.249,0.129-1.873,0.193C381.208,330.896,377.69,326.933,374.403,322.659z"/>
	<path fill="#C3C3C3" d="M374.403,322.659c5.081,1.878,8.316,6.22,12.467,9.34c-4.161,2.587-8.322,5.173-12.483,7.76
		c-4.013-0.223-4.909-2.777-4.638-6.203C370.858,329.735,371.23,325.599,374.403,322.659z"/>
	<path fill="#F3F2F2" d="M388.743,331.806c1.967-1.527,3.934-3.053,5.901-4.581c1.049-0.443,2.098-0.884,3.148-1.325
		c3.993,6.657,12.548,5.946,17.648,10.923c1.738,1.696,4.88,1.837,5.586,4.82C410.265,338.366,399.504,335.086,388.743,331.806z"/>
	<path fill="#C1C0C0" d="M369.749,333.556c1.546,2.068,3.093,4.136,4.639,6.203c-2.991,3.177-7.287,4.086-10.86,6.252
		C362.389,340.255,366.524,337.133,369.749,333.556z"/>
	<path fill="#D2D3D3" d="M156.515,174.842c2.597-0.001,5.194-0.002,7.79-0.004c5.515,6.406,5.18,14.942-1.422,22.082
		c-7.935,8.58-11.36,18.47-12.293,30.153c-1.87,23.431,10.127,39.203,27.68,51.327c35.875,24.78,89.878,22.398,123.876-4.539
		c18.888-14.965,26.424-37.926,19.632-59.564c-2.145-6.832-6.247-12.49-10.625-17.939c-3.223-4.012-4.857-8.511-5.366-13.497
		c-0.326-3.194-0.134-6.288,3.26-8.021c3.114-0.014,6.227-0.027,9.341-0.041c2.216,9.27,8.512,16.268,13.171,24.22
		c12.634,21.565,12.651,43.436-1,64.618c-18.312,28.416-46.186,40.031-78.417,44.078c-15.38,1.932-30.583,1.213-45.45-2.441
		c-25.866-6.356-48.863-18.04-63.256-41.597c-13.275-21.727-13.53-44.309,0.294-66.037
		C148.443,190.234,152.558,182.612,156.515,174.842z"/>
	<path fill="#CFCFCF" d="M323.063,173.295c2.592-0.015,5.185-0.03,7.777-0.045c3.807,6.48,9.059,11.924,13.063,18.269
		c20.088,31.838,14.692,61.66-8.377,89.381c-14.714,17.681-34.679,27.625-56.521,33.799c-47.169,13.332-90.526,5.342-130.09-23.583
		c-8.798-6.432-14.888-15.032-20.159-24.317c-2.434-4.288-4.813-8.576-8.342-12.102c-2.643-6.966-2.953-14.297-3.406-21.606
		c0.102-2.078,0.143-4.17,0.79-6.176c0.683-2.206,2.176-4.053,2.465-6.49c1.646-13.842,7.826-25.742,16.521-36.321
		c2.811-3.42,3.753-7.961,7.264-10.812c2.079,0.001,4.159,0.002,6.239,0.003c4.278,7.288-0.7,12.378-4.569,17.328
		c-7.529,9.633-12.315,20.238-14.107,32.372c-2.066,13.989,0.944,26.951,8.154,38.704c14.82,24.157,37.446,37.813,64.366,44.05
		c38.627,8.95,75.147,3.962,108.233-19.376c24.487-17.273,36.048-47.216,28.124-73.476c-2.819-9.342-7.902-17.4-14.075-24.87
		C322.871,183.74,319.895,179.177,323.063,173.295z"/>
	<path fill="#E0E0E0" d="M204.77,176.375c4.147-0.003,8.295-0.007,12.442-0.01c2.32,1.904,5.454-0.281,7.789,1.548
		c8.301,0,16.603,0,24.904,0c2.336-1.829,5.469,0.356,7.789-1.548c3.63,0.004,7.26,0.007,10.89,0.011
		c2.04,4.73-2.129,5.568-4.675,7.325c-6.091,4.202-6.19,5.224-0.995,10.559c2.19,2.249,4.616,4.156,7.259,5.827
		c23.303,14.743,29.428,45.691-4.665,63.497c-21.464,11.21-43.839,9.492-64.297-4.32c-19.748-13.333-21.315-37.639-3.971-54.04
		c4.173-3.946,9.252-6.671,13.558-10.428c5.984-5.219,5.941-6.448-0.371-11.031C207.837,181.883,204.07,180.812,204.77,176.375z"/>
	<path fill="#CACACA" d="M335.52,171.757c3.679-0.18,7.472,0.457,10.898-1.529c30.173,29.639,36.592,77.869,5.51,114.575
		c-22.914,27.06-53.262,40.772-87.489,45.892c-50.213,7.51-95.669-4.035-135.126-36.819c-4.229-5.781-5.854-12.177-4.52-19.264
		c3.686-2.569,5.797,0.257,7.769,2.527c24.359,28.057,55.962,40.603,92.21,43.609c35.879,2.975,68.872-4.797,98.233-25.997
		c11.011-7.951,20.323-17.788,26.615-29.935c14.626-28.238,11.128-54.855-7.676-80.057
		C339.086,180.931,333.578,178.078,335.52,171.757z"/>
	<path fill="#C8C8C8" d="M130.071,293.091c1.63,0.047,2.9,0.786,4.153,1.818c34.779,28.66,75.325,38.816,119.354,35.302
		c34.057-2.719,65.403-14.693,89.933-38.757c31.175-30.583,37.191-74.437,8.83-111.452c-2.335-3.048-5.12-5.807-5.923-9.776
		c3.623-0.524,7.246-1.048,10.869-1.573c4.284,6.486,9.142,12.576,13.005,19.358c17.157,30.121,14.205,69.366-7.234,96.601
		c-23.728,30.142-55.791,45.636-92.649,52.286c-46.602,8.408-90.212,0.478-130.307-25.202c-1.966-1.259-4.083-2.253-6.126-3.391
		C130.309,303.844,127.332,299.198,130.071,293.091z"/>
	<path fill="#C6C5C5" d="M134.7,307.102c10.688,3.926,19.323,11.639,29.941,15.847c17.588,6.969,35.441,11.941,54.407,13.952
		c30.483,3.233,59.701-0.955,87.66-12.818c35.075-14.881,62.574-37.74,71.066-76.948c5.471-25.259-0.908-48.562-16.539-69.272
		c-2.002-2.653-5.721-4.834-3.949-9.209c2.062-0.057,4.124-0.115,6.187-0.173c1.613,0.295,2.862,1.209,3.845,2.448
		c12.517,15.775,20.774,33.145,21.705,53.737c1.939,42.907-20.096,72.162-53.997,94.045c-26.165,16.889-55.39,24.753-86.579,26.412
		c-35.978,1.913-69.892-4.475-101.588-21.842c-2.515-1.378-5.229-2.234-8.01-2.906C134.44,316.9,132.066,312.782,134.7,307.102z"/>
	<path fill="#D1D1D1" d="M323.063,173.295c0.114,5.573,1.917,10.059,5.756,14.572c27.586,32.44,18.352,74.511-13.319,98.812
		c-26.274,20.16-56.721,27.339-89.106,24.843c-31.303-2.412-59.351-13.347-80.683-37.805c-21.649-24.821-22.7-58.707-1.479-84.224
		c3.974-4.779,6.684-9.807,6.057-16.198c2.075,0.516,4.151,1.031,6.226,1.546c-0.998,6.303-2.395,11.956-6.778,17.46
		c-24.287,30.498-15.52,70.065,15.652,92.006c18.082,12.728,37.941,19.815,60.397,21.567c33.526,2.616,64.177-4.339,89.258-26.525
		c25.198-22.29,33.296-54.715,10.806-85.215c-4.368-5.924-9.051-11.303-7.461-19.336
		C319.946,174.297,321.505,173.796,323.063,173.295z"/>
	<path fill="#D6D6D5" d="M309.047,174.839c-3.075,7.462-1.404,14.119,3.71,19.984c22.599,25.92,15.639,61.369-9.912,81.192
		c-21.25,16.486-45.764,23.045-71.878,21.441c-29.899-1.837-56.221-12.328-74.71-37.966c-11.806-16.372-10.27-51.881,5.655-64.591
		c6.839-5.458,4.202-13.044,2.392-20.062c2.076-0.002,4.151-0.005,6.227-0.007c7.14,6.901,7.802,11.815,2.661,19.769
		c-0.845,1.307-1.651,2.662-2.721,3.787c-20.972,22.034-15.81,55.487,11.027,74.738c21.589,15.487,45.749,18.417,71.103,15.573
		c19.125-2.145,35.463-10.027,49.054-24.23c19.024-19.881,20.223-45.011,2.127-66.362c-7.699-9.085-7.947-15.108-0.956-23.272
		C304.901,174.836,306.974,174.838,309.047,174.839z"/>
	<path fill="#CDCDCC" d="M335.52,171.757c4.352,9.979,12.792,17.158,17.666,27.004c13.416,27.1,7.803,58.858-10.804,80.378
		c-24.532,28.373-56.409,40.881-93.215,43.689c-30.173,2.301-58.442-3.15-84.955-17.422c-12.785-6.882-24.614-15.208-33.183-27.347
		c-1.38-1.954-2.973-3.621-5.618-3.644c-5.493-6.054-6.393-12.822-3.147-20.234c7.346,6.138,9.653,15.67,15.493,22.955
		c5.134,6.404,11.107,11.409,17.562,16.143c19.696,14.443,42.132,21.868,66.048,24.591c37.003,4.213,71.216-4.317,100.784-27.008
		c20.106-15.429,32.451-36.293,31.892-62.617c-0.37-17.434-7.719-32.509-19.236-45.44c-2.569-2.884-4.559-5.565-3.965-9.554
		C332.4,172.752,333.96,172.255,335.52,171.757z"/>
	<path fill="#DBDBDA" d="M282.596,176.383c2.593-0.002,5.187-0.004,7.78-0.006c0.491,0.615,1.115,1.449,0.794,2.076
		c-4.733,9.247-0.35,15.402,5.776,22.423c20.878,23.929,13.557,51.193-10.774,69.672c-10.236,7.774-21.586,13.181-34.77,13.72
		c-2.856-0.104-5.668,0.139-8.406,1.034c-4.206,0.759-8.411,0.78-12.615,0.02c-3.144-1.046-6.401-1.13-9.672-1.083
		c-20.749-2.805-38.186-11.024-49.005-30.048c-7.199-13.274-8.539-26.989-3.115-41.211c2.202-7.399,6.669-13.151,12.876-17.624
		c6.922-6.002,7.168-8.11,1.577-13.834c-1.357-1.699-1.557-3.411-0.068-5.141c2.594,0.001,5.188,0.002,7.781,0.003
		c9.247,11.168,8.701,15.464-1.377,25.572c-22.021,22.087-16.046,48.515,8.69,63.225c26.784,15.927,55.013,15.054,81.615-1.971
		c21.925-14.032,24.511-40.876,6.426-59.48c-0.903-0.928-1.834-1.829-2.733-2.761C274.028,191.27,273.89,186.899,282.596,176.383z"
		/>
	<path fill="#DFDEDE" d="M204.77,176.375c1.846,4.251,6.475,4.889,9.617,7.445c4.119,3.349,6.233,5.888,0.21,10.636
		c-8.748,6.895-19.399,11.933-24.355,23.192c-4.977,11.306-3.13,25.486,5.483,34.491c21.98,22.981,64.842,21.344,85.108-3.251
		c9.839-11.94,7.306-32.894-5.145-42.458c-5.448-4.184-11.056-8.129-16.395-12.496c-5.721-4.679-2.717-6.628,0.396-10.081
		c2.656-2.946,8.662-1.799,8.896-7.477c2.594,0.002,5.189,0.004,7.783,0.006c1.844,2.526-0.013,4.319-1.231,6.243
		c-4.663,7.366-4.441,10.176,2.404,15.661c5.339,4.278,9.915,9.028,13.189,15.057c8.566,15.771,5.139,33.989-8.355,45.835
		c-24.281,21.316-65.202,20.745-88.402,1.53c-18.657-15.452-20.149-39.756-3.006-57.061c1.64-1.655,3.339-3.249,5.02-4.862
		c7.846-7.528,8.009-9.044,2.06-18.115c-0.853-1.301-1.742-2.603-1.059-4.289C199.583,176.378,202.177,176.376,204.77,176.375z"/>
	<path fill="#D9D8D8" d="M229.672,283.752c4.669,0,9.339,0,14.008,0c2.331-1.836,5.468,0.363,7.782-1.556
		c23.91-0.931,53.603-22.692,55.772-49.24c1.112-13.616-5.443-24.982-14.531-34.588c-7.679-8.117-8.205-9.426-2.818-19.733
		c0.344-0.658,0.336-1.501,0.491-2.257c2.074,0.004,4.149,0.007,6.223,0.01c1.482,1.586,0.925,3.399,0.481,5.136
		c-1.497,5.858,0.414,10.527,4.439,14.849c22.596,24.266,18.179,56.219-9.057,76.853c-29.975,22.71-78.606,22.133-108.035,1.711
		c-11.918-8.271-21.336-18.79-24.961-33.53c-3.534-14.373,0.24-27.111,8.132-39.019c1.57-2.368,3.333-4.637,5.19-6.786
		c3.791-4.387,6.055-8.98,3.416-14.844c-0.641-1.425-0.652-3.043,0.548-4.372c2.074-0.002,4.148-0.004,6.221-0.005
		c0.061,1.704-0.269,3.538,1.561,4.647c3.8,5.62,1.973,10.677-1.556,15.564c-5.876,3.808-9.815,9.165-12.451,15.564
		c-6.316,14.553-5.97,28.612,3.113,42.024c10.833,17.223,27.028,25.511,46.693,28.016
		C223.194,284.226,226.797,281.804,229.672,283.752z"/>
	<path fill="#DDDDDC" d="M196.989,176.38c0.956,1.209,1.825,2.5,2.883,3.613c7.259,7.638,6.981,11.764-1.201,19.009
		c-10.072,8.918-18.414,18.216-17.57,33.5c0.603,10.93,5.419,18.74,12.775,25.425c23.229,21.112,66.398,20.191,88.873-1.583
		c15.616-15.129,13.75-41.434-3.858-54.543c-1.855-1.381-3.815-2.678-5.442-4.299c-4.89-4.873-6.198-9.988-0.571-15.336
		c1.676-1.593,3.535-3.13,3.492-5.785c2.076,0.001,4.152,0.001,6.228,0.002c-0.295,1.501-0.071,3.514-0.966,4.422
		c-6.958,7.054-3.429,12.827,2.328,17.842c30.811,26.84,14.182,63.49-19.052,74.538c-23.171,7.703-46.16,7.025-67.227-5.665
		c-26.76-16.12-33.726-46.417-6.967-69.328c5.273-4.515,6.418-9.907,2.37-15.481c-1.454-2.002-2.512-3.859-2.326-6.328
		C192.833,176.382,194.911,176.381,196.989,176.38z"/>
	<path fill="#C4C3C3" d="M139.38,319.588c3.116-2.869,5.362,0.302,7.443,1.487c21.194,12.066,44.078,19.311,68.146,21.5
		c49.486,4.501,95.908-4.704,135.034-37.168c26.552-22.032,40.513-50.718,36.772-86.168c-1.636-15.501-8.159-29.259-16.968-41.973
		c-2.055-2.966-4.219-5.858-6.333-8.784c1.704-2.158,4.12-1.249,6.277-1.459c13.93,17.007,23.026,35.774,24.028,58.343
		c1.747,39.367-16.875,67.908-47.148,90.014c-30.832,22.514-65.68,32.82-103.988,32.898c-24.551,0.05-48.565-1.843-71.805-10.1
		c-10.252-3.643-20.074-8.314-29.913-12.948C139.199,323.681,137.735,322.056,139.38,319.588z"/>
	<path fill="#D8D8D7" d="M176.753,176.386c4.255,8.347,2.373,14.824-3.723,22.237c-24.952,30.341-11.548,60.724,18.017,78.206
		c17.507,10.352,37.275,14.088,56.773,11.589c24.704-3.167,47.602-12.333,60.599-36.211c9.427-17.319,7.126-38.36-6.661-52.406
		c-7.176-7.311-9.162-14.34-5.158-23.415c1.933-1.091,3.952-1.841,6.229-1.553c-4.604,9.154-3.002,16.16,4.248,24.253
		c16.148,18.028,14.987,47.641-2.425,65.478c-23.931,24.514-52.401,29.679-84.456,25.729c-23.941-2.95-43.223-13.71-57.01-33.416
		c-11.85-16.937-9.837-41.896,3.787-57.503c9.443-10.818,9.652-12.254,3.56-24.545C172.606,175.349,174.679,175.867,176.753,176.386
		z"/>
	<path fill="#C2C1C1" d="M375.984,165.49c1.038-0.494,2.076-0.989,3.114-1.483c14.944,16.379,23.508,35.589,25.339,57.698
		c0.382,4.613-0.188,9.305,1.214,13.834c-1.73,17.768-6.958,34.535-14.55,50.629c-11.037,12.326-21.538,25.258-34.986,35.108
		c-26.894,19.698-57.181,30.806-90.223,34.618c-25.869,2.985-51.591,2.387-77.115-3.107c-13.957-3.004-27.411-7.54-40.448-13.352
		c-1.608-1.078-2.309-2.478-1.545-4.39c3.334-2.781,6.905-1.756,10.243-0.282c29.304,12.939,60.198,17.053,91.8,15.273
		c45.289-2.551,86.261-16.541,118.996-49.43c14.324-14.39,25.319-31.688,28.578-51.613c3.912-23.913,0.193-47.443-13.345-68.614
		C380.126,175.798,374.968,172.032,375.984,165.49z"/>
	<path fill="#C3C3C3" d="M140.981,324.219c7.24,0.46,12.987,4.916,19.343,7.583c21.953,9.212,44.594,14.076,68.446,14.319
		c24.666,0.252,49.077-0.72,72.537-9.285c23.328-8.517,45.033-20.062,62.113-38.388c28.225-30.285,36.457-65.197,21.158-104.393
		c-2.689-6.889-7.343-13.031-11.281-19.4c-1.504-2.432-3.288-4.653-3.545-7.631c1.041-0.487,2.082-0.975,3.123-1.462
		c20.845,25.467,29.744,54.181,22.413,86.762c-5.302,23.565-18.807,42.37-36.945,57.821c-25.32,21.568-55.185,33.811-87.691,38.404
		c-38.913,5.499-77.347,2.791-113.917-13.437c-4.081-1.811-8.387-2.606-12.641-3.706
		C140.857,329.965,139.885,327.538,140.981,324.219z"/>
	<path fill="#C2C1C1" d="M144.072,330.435c3.233-2.634,5.999,0.082,8.405,1.269c33.011,16.293,68.375,19.948,104.175,17.085
		c42.529-3.4,80.956-18.139,110.979-49.896c14.965-15.829,24.736-34.347,27.288-56.728c2.767-24.265-2.508-45.889-16.326-65.776
		c-2.309-3.323-5.361-6.412-5.72-10.83c1.037-0.023,2.074-0.047,3.111-0.07c9.444,14.831,18.986,29.525,21.96,47.451
		c3.76,22.665,1.69,44.155-10.221,64.323c-23.768,40.245-61.083,60.048-104.909,70.384c-20.33,4.794-40.99,5.62-61.592,4.363
		c-21.917-1.337-43.458-5.627-63.635-14.916c-3.448-1.588-6.846-2.195-10.519-1.946
		C143.759,335.047,142.466,333.663,144.072,330.435z"/>
	<path fill="#603D16" d="M139.452,169.548c-16.549-1.643-32.652-5.423-48.454-10.464c-2.739-0.874-5.081-2.992-7.606-4.535
		c-0.269-3.369,2.858-3.276,4.63-4.575c6.984-2.684,14.218-4.488,21.527-6.023c4.221-0.572,8.404-1.475,12.682-1.617
		c0.765,0.12,1.495,0.364,2.191,0.704c1.767,1.089,3.686,2.432,4.19,4.324c1.928,7.245,6.745,12.433,11.686,17.612
		c0.895,0.938,1.271,2.195,1.073,3.547C140.876,169.135,140.236,169.476,139.452,169.548z"/>
	<path fill="#603D16" d="M389.403,155.797c-16.9,6.458-34.245,11.067-52.335,12.569c-1.447-1.503-1.637-3.456-0.443-4.852
		c5.143-6.012,6.433-14.32,12.084-20.002c0.619-0.544,1.32-0.934,2.097-1.199c7.153-0.93,13.754,1.829,20.589,3.061
		c5.064,1.473,10.307,2.469,15.048,4.827C388.488,151.218,392.041,152.045,389.403,155.797z"/>
	<path fill="#C0C0C0" d="M404.031,235.605c-3.778-7.513-0.772-15.731-2.661-23.643c-3.416-14.306-9.288-27.22-17.409-39.311
		c-1.837-2.735-4.427-5.103-4.863-8.645c2.576-0.574,5.153-1.15,7.728-1.726c7.868,11.154,14.71,22.86,19.506,35.704
		c0.856,2.292,1.69,5.311,5.376,3.288c0.029,1.038,0.058,2.076,0.087,3.113C413.04,215.744,411.503,226.413,404.031,235.605z"/>
	<path fill="#CACACA" d="M83.391,126.643c12.474-5.405,25.291-9.592,38.899-10.981c2.724-0.665,7.039-2.085,3.69,3.083
		c-3.087,4.764-0.962,7.16,1.739,10.638c2.626,3.382,8.705,5.889,4.644,12.013c-1.461,0.712-3.167,1.102-4.491,0.354
		c-11.315-6.399-24.423-5.768-36.405-9.471C88.274,131.292,83.978,131.513,83.391,126.643z"/>
	<path fill="#E0E0DF" d="M251.557,134.102c4.637-8.742,9.274-17.484,13.91-26.226c9.839,0.877,19.867-1.826,29.575,1.551
		c-0.154,0.223-0.307,0.445-0.431,0.66c6.068,2.919,12.89,3.581,18.864,6.853c8.186,4.484,10.874,11.7,7.089,20.617
		c-1.403,1.381-3.21,1.944-5.02,2.511c-1.116,0.298-2.249,0.388-3.399,0.292c-1.868-0.216-3.673-0.831-5.572-0.885
		c-2.285-0.176-4.632-0.073-6.653-1.438c-0.518-0.588-0.712-1.275-0.586-2.048c1.025-1.368,2.565-1.608,4.104-1.85
		c2.26-0.355,4.981-0.156,5.717-3.017c0.732-2.846-1.105-4.888-2.93-6.785c-0.902-0.937-1.903-1.839-3.108-2.281
		c-10.478-3.834-21.365-5.72-32.443-6.632c-1.327-0.109-2.546,0.331-3.378,1.49c-4.628,4.99-6.129,11.802-10.034,17.214
		c-0.516,0.534-1.129,0.916-1.816,1.189c-1.111,0.276-2.183,0.188-3.205-0.351C252.013,134.68,251.785,134.391,251.557,134.102z"/>
	<path fill="#CDCDCD" d="M144.05,173.292c0.65,6.436-4.414,9.988-7.593,14.31c-7.451,10.134-13.145,20.878-14.166,33.639
		c-0.183,2.288-1.033,3.946-3.124,4.923c-4.692-4.351-3.565-10.156-3.852-15.588c-0.16-3.019,0.157-6.044,0.093-9.065
		c0.088-6.362-0.771-12.769,0.813-19.052c0.319-0.762,0.851-1.369,1.556-1.803c6.083,3.266,1.88,9.143,3.571,13.519
		c4.853-8.298,10.23-16.339,18.038-22.411C140.94,172.274,142.495,172.783,144.05,173.292z"/>
	<path fill="#CBCBCB" d="M341.733,114.085c11.537,2.126,23.585,1.996,34.302,7.752c-0.391,4.884-4.425,6.565-7.968,7.279
		c-10.097,2.036-18.553,7.331-27.213,12.324c-0.754,0.034-1.477-0.124-2.153-0.461c-1.765-4.26,1.615-6.699,3.631-9.401
		c4.009-5.373,7.02-10.406-0.464-15.351C341.296,115.848,341.393,114.832,341.733,114.085z"/>
	<path fill="#C3C2C2" d="M371.031,146.93c-7.082-1.188-14.164-2.375-21.247-3.563c-0.579-0.866-0.48-1.646,0.291-2.345
		c9.988-5.107,21.131-3.791,31.723-5.441c6.243-0.973,12.6-3.252,19.113-1.27c3.443,3.246,7.446,6.412,1.587,11
		C392.014,145.97,381.596,147.867,371.031,146.93z"/>
	<path fill="#C6C6C6" d="M83.391,126.643c6.653,4.438,14.43,4.832,21.957,6.261c7.474,1.418,15.367,1.615,21.75,6.727
		c1.741,1.394,3.972,0.85,6.028,0.806c0.144,0.398,0.288,0.797,0.433,1.198c-0.375,0.813-0.976,1.388-1.8,1.739
		c-3.063,1.265-5.995,0.24-8.945-0.51c-14.708-0.632-29.247-2.833-43.807-4.78c-2.494-0.334-6.059,0.518-6.505-3.703
		C76.132,131.801,79.761,129.222,83.391,126.643z"/>
	<path fill="#C7C6C6" d="M400.91,134.311c-9.601,3.139-19.675,3.358-29.564,4.596c-7.385,0.925-14.786,1.625-22.05,3.31
		c-1.277,0.768-2.39,0.703-3.251-0.641c0.998-5.56,5.9-7.741,10.001-8.198c11.933-1.33,23.523-4.812,35.551-5.311
		C395.612,128.789,398.862,130.654,400.91,134.311z"/>
	<path fill="#C3C3C2" d="M72.502,134.38c10.025,2.961,20.47,3.211,30.734,4.47c7.106,0.872,14.153,1.792,21.096,3.509l0.047,0.776
		l-0.651,0.425c-4.61,0.443-9.05,2.255-13.782,1.717c-6.872,1.385-13.798,1.036-20.62-0.002c-6.185-0.941-12.27-1.025-18.409-0.05
		C65.613,140.759,69.619,137.651,72.502,134.38z"/>
	<path fill="#C9C8C8" d="M391.596,128.067c-9.313,3.991-19.158,5.713-29.17,6.176c-6.596,0.305-12.018,2.307-16.024,7.661
		c-1.614,1.995-3.592,1.879-5.706,0.991c-0.776-0.519-1.07-1.239-0.884-2.155c7.467-5.382,14.796-10.895,24.378-12.238
		c4.641-0.651,8.69-3.028,11.844-6.663C381.763,122.56,387.1,124.262,391.596,128.067z"/>
	<path fill="#785A32" d="M339.812,140.74c0.249,0.385,0.484,0.779,0.702,1.182c-5.065,11.828-12.278,21.666-23.493,26.899
		c-2.235-0.419-0.646,1.158-0.842,0.139c-0.04-0.209,0.212-0.157,0.751-0.164c1.364-0.018,2.51,0.351,3.323,1.504
		c-3.549,1.863-7.517,0.89-11.228,1.661c-2.808,0.948-5.707,0.28-8.554,0.481c-2.252-0.264-4.643,0.632-6.886-0.791
		c0.076-3.516,3.11-3.83,5.311-4.515c13.938-4.339,25.171-11.892,31.505-25.566c0.438-0.946,1.381-1.518,2.305-2.025
		c2.161-0.777,4.173-0.67,5.917,1C338.973,140.899,339.368,140.964,339.812,140.74z"/>
	<path fill="#68461C" d="M320.254,170.3c-2.19-0.202-4.381-0.403-7.838-0.722c12.273-6.226,20.571-14.66,25.409-26.343
		c0.286-0.69,1.765-0.886,2.689-1.312c1.963-0.006,3.925-0.012,5.888-0.019c0.965,0.104,1.929,0.209,2.894,0.313
		c0.21,0.363,0.373,0.747,0.489,1.15c0,0-0.393,0.489-0.393,0.489c-7.387,7.077-11.079,16.591-16.478,24.979
		C328.859,170.748,324.501,170.05,320.254,170.3z"/>
	<path fill="#D8D8D8" d="M315.253,138.567c1.301-1.402,3.031-1.099,4.666-1.177c5.385-7.969,3.157-15.865-6.108-19.868
		c-4.686-2.025-9.294-4.483-14.567-5.067c-1.686-0.187-4.457,0.255-4.195-3.016c0,0-0.006-0.01-0.006-0.011
		c6.203,0.809,12.686-1.691,18.681,1.578c6.98,1.212,13.406,3.197,17.586,9.724c4.421,6.905,3.869,13.109-2.289,19.347
		c-3.441,1.317-6.983,1.108-10.544,0.707C317.121,140.453,315.895,139.931,315.253,138.567z"/>
	<path fill="#CACACA" d="M139.386,171.765c-5.272,9.546-14.314,16.44-18.776,28.863c-2.342-7.876-1.031-13.818-1.45-19.608
		c-0.517-0.52-0.699-1.131-0.503-1.846c2.137-3.562,5.335-6.147,8.279-8.969C131.004,171.375,135.138,172.024,139.386,171.765z"/>
	<path fill="#816744" d="M190.575,174.719c-5.247-2.705-10.896-1.427-16.394-1.655c-0.86-0.189-1.161-0.677-0.815-1.511
		c0.363-0.375,0.779-0.687,1.267-0.857c2.595-0.903,0.259-0.661-0.188-0.769c-10.915-2.656-20.005-8.345-27.294-16.811
		c-2.998-3.481-6.288-7.041-5.174-12.345c0.511-0.598,1.15-0.973,1.917-1.137c0.779-0.024,1.517,0.144,2.222,0.468
		c8.053,15.91,22.522,22.164,38.777,25.726c4.222,1.072,8.391,2.402,12.826,2.322c4.84,2.261,11.441-0.92,15.133,4.883
		c-0.622,0.713-1.404,1.029-2.347,0.954C203.867,174.422,197.169,173.128,190.575,174.719z"/>
	<path fill="#69471D" d="M123.729,143.561c0.218-0.392,0.419-0.793,0.604-1.202c2.877-0.118,5.753-0.236,8.63-0.354
		c1.014-0.788,2.112-0.896,3.284-0.408c4.394,12.229,13.791,20.253,24.326,26.982c-2.437,3.377-5.066,1.727-7.096,2.538
		c-4.875,1.265-9.171-2.639-14.025-1.569c0.441-0.431,0.881-0.863,1.322-1.294c-5.303-8.294-9.444-17.384-16.688-24.348
		L123.729,143.561z"/>
	<path fill="#DBDADA" d="M175.195,109.429c2.548,0,5.097,0,9.356,0c-7.801,5.571-16.305,4.574-22.894,8.893
		c-3.853,2.526-7.151,5.227-8.614,9.341c-1.68,4.724-1.362,9.225,5.287,9.908c0.284,0.741,0.139,1.401-0.372,1.997
		c-0.624,0.422-1.305,0.711-2.032,0.903c-1.109,0.235-2.231,0.297-3.363,0.252c-1.516-0.096-2.972-0.383-4.192-1.375
		c-5.162-12.64-3.206-18.334,8.245-24.719c1.263-0.705,3.625-0.545,3.445-3.028c-0.025-0.01-0.428-0.609-0.428-0.609
		C164.554,107.82,170.028,110.147,175.195,109.429z"/>
	<path fill="#D2D2D2" d="M329.284,139.036c5.71-11.733,2.03-20.825-10.146-25.462c-1.84-0.701-4.137-0.627-5.416-2.568
		c5.168,0.682,10.633-1.62,15.554,1.545c0.885,1.54,2.607,1.48,3.987,2.022c4.111,1.615,9.101,2.939,8.892,8.314
		c-0.24,6.164-1.93,12.244-7.092,16.485c-0.955,0.785-2.512,0.351-3.761,0.671C330.527,139.913,329.85,139.587,329.284,139.036z"/>
	<path fill="#CFCFCF" d="M330.434,139.209c9.132-1.218,8.037-9.546,9.985-15.272c1.747-5.136-3.59-5.521-6.879-7.237
		c-1.597-0.833-4.56-1.067-4.263-4.15c4.134,0.655,8.618-1.525,12.456,1.535c0.658,1.458,1.771,2.347,3.227,3.037
		c4.96,2.348,5.925,5.467,2.36,10.116c-3.215,4.193-5.821,8.853-8.696,13.307c-2.078,0.039-4.155,0.077-6.233,0.116
		c-0.488,0.487-1.044,0.585-1.67,0.298c-0.287-0.351-0.425-0.728-0.415-1.129C330.318,139.416,330.36,139.209,330.434,139.209z"/>
	<path fill="#C0BFBF" d="M70.917,145.226c4.416-6.527,10.728-2.646,16.077-2.513c7.667,0.191,15.303,1.648,22.952,2.564
		c-7.256,2.085-14.513,4.17-21.769,6.254c-3.129,0.568-6.68-2.049-9.447,1.252C75.276,151.143,73.046,148.237,70.917,145.226z"/>
	<path fill="#806643" d="M331.122,140.358c0.473-0.108,0.897-0.007,1.27,0.303c-6.192,17.817-20.993,25.023-39.448,30.332
		c3.755,0.479,5.455,0.696,7.156,0.913c0.065,0.65-0.242,1.013-0.868,1.132c-5.556,0.151-11.112,0.303-16.668,0.454
		c-1.983,0.786-3.999,0.598-6.02,0.208c-0.412-4.783,3.805-4.05,6.246-4.79c8.389-2.544,16.907-4.663,24.659-8.925
		c6.181-3.653,12.241-7.459,16.441-13.526c2.415-1.543,3.504-4.204,5.277-6.293C329.855,139.867,330.508,139.913,331.122,140.358z"
		/>
	<path fill="#CECDCD" d="M133.127,140.437c-1.264-4.552-4.629-7.572-7.744-10.818c-3.359-3.501-7.41-7.023-0.754-11.388
		c1.591-1.043,1.335-1.434-2.339-2.569c3.277-2.954,7.264-0.967,10.88-1.563c4.364-1.525,6.838-0.395,3.599,3.95
		c-4.207,5.643-4.884,10.444-0.002,15.909c1.568,1.755,1.44,4.379,0.011,6.587c-1.027,0.869-2.156,0.812-3.326,0.364
		L133.127,140.437z"/>
	<path fill="#75562D" d="M153.476,171.117c1.602-0.582,3.204-1.164,5.297-1.924c-10.196-6.932-21.224-12.957-22.648-26.855
		c2.853-2.372,4.369-0.046,5.279,1.935c5.499,11.98,15.961,18.151,27.05,23.702c1.654,0.828,5.258,0.62,3.136,4.331
		c-2.427,0.084-4.869,0.511-7.248-0.356C160.72,171.673,157.098,171.395,153.476,171.117z"/>
	<path fill="#C0BFBF" d="M371.031,146.93c10.433-1.607,20.752-5.427,31.465-1.62c-2.988,5.215-8.614,7.136-13.094,10.487
		c0.817-4.151-3.002-3.358-4.857-4.155C380.173,149.764,375.552,148.464,371.031,146.93z"/>
	<path fill="#D3D3D3" d="M145.627,112.547c4.381-3.113,9.357-0.86,14.006-1.554c0,0-0.013,0.013-0.013,0.013
		c0.462,3.386-2.594,3.276-4.385,4.184c-10.42,5.284-12.117,8.352-10.482,19.647c0.255,1.76,0.773,3.57-1.152,4.809
		c-7.936,0.932-6.89-6.435-8.535-10.304c-2.109-4.961,0.22-9.932,4.65-13.536C141.522,114.338,144.172,114.548,145.627,112.547z"/>
	<path fill="#D0D0D0" d="M145.627,112.547c-0.01,3.232-3.074,3.443-4.901,4.747c-4.183,2.985-5.534,7.397-4.07,11.616
		c1.317,3.795,0.61,9.979,7.391,10.071l0.475,0.534l-0.434,0.568c-0.528,0.179-1.056,0.359-1.583,0.538
		c-2.112,1.427-4.178,1.141-6.217-0.166c-0.013-2.579,0.378-5.33-1.948-7.213c-6.454-5.226-4.114-10.304,0.355-15.13
		c2.569-2.774,3.152-4.248-1.524-4.012C137.001,111.004,141.495,113.227,145.627,112.547z"/>
	<path fill="#634018" d="M332.914,168.835c-1.219-0.547-4.107-0.734-2.415-2.588c5.597-6.132,10.658-12.452,13.48-20.415
		c0.795-2.244,3.262-2.232,5.414-1.977c-3.631,6.226-5.271,13.559-10.429,18.923c-1.557,1.62-1.998,3.477-1.895,5.589
		C335.683,168.522,334.298,168.679,332.914,168.835z"/>
	<path fill="#C8C7C7" d="M126.935,170.205c-0.764,4.617-4.471,6.768-7.765,9.265c-3.147-2.349-7.084-2.59-10.597-3.968
		c-0.543-0.492-0.818-1.107-0.836-1.839c0.705-2.034,2.018-3.632,3.631-5.011C116.558,169.169,121.746,169.687,126.935,170.205z"/>
	<path fill="#8E785C" d="M210.698,173.429c0.464-0.221,0.951-0.368,1.46-0.441c2.583-2.264,5.768-1.874,8.81-1.894
		c10.785-0.071,21.571-0.039,32.352-0.031c3.312,0.186,6.728-0.377,9.851,1.286c0.991,0.641,1.07,1.386,0.24,2.228
		c-17.326,0.009-34.651,0.017-51.977,0.026C210.734,174.496,210.509,174.091,210.698,173.429z"/>
	<path fill="#C3C3C3" d="M111.369,168.651c0.056,2.267,0.008,4.464-3.101,4.595c-5.06,2.884-9.617,1.351-14.012-1.597
		c2.549-2.07,7.103-1.587,7.744-6.083C105.123,166.596,108.246,167.624,111.369,168.651z"/>
	<path fill="#BDBBBA" d="M78.73,152.784c1.962-9.38,6.112-2.241,9.447-1.252c-1.595,1.006-3.191,2.011-4.786,3.016
		C81.838,153.96,80.284,153.372,78.73,152.784z"/>
	<path fill="#DCD9D4" d="M210.698,173.429c0.196,0.422,0.44,0.814,0.734,1.174c-6.951,0.038-13.903,0.077-20.856,0.116
		C197.104,171.505,204.04,174.63,210.698,173.429z"/>
	<path fill="#DCD9D4" d="M263.41,174.576c0.319-0.349,0.599-0.726,0.841-1.132c3.965-3.257,8.031-2.984,12.166-0.352
		c2.049,0.133,4.098,0.266,6.147,0.399C276.313,176.217,269.808,174.442,263.41,174.576z"/>
	<path fill="#E5E4E3" d="M164.342,171.95c2.584-0.068,5.169-0.136,7.753-0.204c0.465-0.525,0.837-0.466,1.118,0.177
		c0.304,0.395,0.625,0.776,0.966,1.141C170.878,172.907,167.394,174.339,164.342,171.95z"/>
	<path fill="#DCD9D4" d="M299.232,173.038c0.304-0.366,0.593-0.744,0.868-1.132c2.976,0.019,5.951,0.037,8.926,0.055
		C305.977,174.282,302.54,173.073,299.232,173.038z"/>
	<path fill="#E6E5E5" d="M225.002,177.913c-2.624-0.376-5.604,1.039-7.789-1.548C219.838,176.736,222.82,175.312,225.002,177.913z"
		/>
	<path fill="#E6E5E5" d="M257.695,176.364c-2.185,2.587-5.165,1.172-7.789,1.548C252.088,175.312,255.07,176.736,257.695,176.364z"
		/>
	<path fill="#616161" d="M296.261,459.478c13.29-1.575,26.587-3.093,39.868-4.75c7.061-0.881,14.093-2.002,21.138-3.015
		c-9.351,6.939-20.87,6.972-31.516,9.215c-18.378,3.873-37.213,4.933-55.876,7.008c-13.824,1.537-27.719,1.632-41.318,1.64
		c-14.96,0.009-30.242-2.063-45.318-3.823c-17.4-2.031-34.561-5.509-51.615-9.486c-1.677-0.391-3.247-1.24-6.239-2.416
		c2.622-0.325,3.843-0.476,5.065-0.628c17.619,2.086,35.238,4.173,52.857,6.259c-1.24,1.097-2.785,1.058-3.034,1.08
		c39.264,3.894,79.793,3.806,119.393-0.014C299.129,460.412,297.485,460.653,296.261,459.478z"/>
	<path fill="#BAB7B7" d="M191.079,471.914c-25.488-0.576-50.828-2.254-75.502-9.439c-4.413-1.285-9.015-1.923-13.529-2.86
		c-8.582-1.616-16.201-5.587-23.768-9.697c-5.423-4.616-13.782-5.444-16.867-13.058c-0.051-0.125,0.239-0.436,0.424-0.597
		c0.326-0.283,0.786-0.261,1.32-0.004c4.104,1.9,9.126,1.419,12.634,4.867c1.527,0.933,3.708,0.796,4.58,2.8
		c21.9,11.441,45.618,17.197,69.633,21.769C163.598,468.281,177.381,469.873,191.079,471.914z"/>
	<path fill="#BBB8B8" d="M318.393,470.527c-5.275-0.036-10.55-0.073-15.826-0.11c13.918-2.563,27.904-4.812,41.739-7.769
		c17.411-3.721,34.429-8.803,50.287-17.172c1.073-1.246,2.683-1.592,4.018-2.4c1.553-1.115,3.598-0.931,5.184-1.96
		c3.592-4.657,9.689-3.628,14.178-6.246c1.909,3.091-0.717,3.705-2.522,5.148c-10.83,8.66-23.554,13.425-36.363,18.053
		c-14.028,5.626-28.889,7.919-43.581,10.891c-0.518,0.004-1.036,0.006-1.554,0.006c-3.959,2.066-8.505-0.595-12.454,1.549
		C320.464,470.521,319.429,470.524,318.393,470.527z"/>
	<path fill="#6B6B6B" d="M399.27,443.993c-1.487,0.722-2.812,1.953-4.677,1.485c-1.045-0.483-2.089-0.965-3.134-1.448
		c1.659-1.618,3.811-1.617,5.907-1.799C399.174,441.551,399.488,442.485,399.27,443.993z"/>
	<path fill="#7D7C7C" d="M80.372,443.925c-1.765-0.543-3.617-0.946-4.58-2.8c2.271-0.518,4.481-0.696,6.326,1.145
		C81.536,442.821,80.954,443.373,80.372,443.925z"/>
	<path fill="#CBCBCB" d="M276.369,456.507c-23.865,2.242-47.73,2.574-71.595,0.016c-7.815-2.753-16.164-2.303-24.173-4.063
		c-9.362-2.058-18.402-4.924-27.166-8.723c-5.02-2.176-9.409-5.323-13.19-9.276c-7.092-7.414-7.041-14.443,0.346-21.485
		c3.551-3.385,7.371-6.535,12.749-6.472c3.027,0.9,7.102,0.151,7.745,4.855c-4.654,3.804-11.831,6.328-10.469,13.919
		c1.386,7.718,8.364,10.842,14.828,13.527c15.445,6.416,31.784,9.461,48.32,10.767c26.87,2.123,53.702,1.516,80.151-4.459
		c9.094-2.055,18.182-4.494,26.178-9.497c12.255-7.669,12.147-14.961-0.029-22.494c-0.667-0.412-1.244-0.924-1.787-1.493
		c2.163-6.04,7.206-6.099,12.355-5.954c2.447,0.979,4.373,2.756,6.407,4.342c11.854,9.24,11.886,18.326,0.117,27.871
		c-5.301,4.3-11.307,7.269-17.804,9.31c-12.364,3.884-24.761,7.585-37.88,7.771C279.618,454.997,277.866,455.317,276.369,456.507z"
		/>
	<path fill="#C8C8C8" d="M276.369,456.507c1.667-3.686,5.069-2.644,8.052-3.175c17.004-3.024,34.245-5.438,49.088-15.329
		c2.555-1.702,4.927-3.799,7.019-6.052c5.008-5.395,4.712-10.866-0.047-16.482c-2.866-3.382-7.742-4.447-9.645-8.796
		c0.725-4.686,4.533-5.001,8.073-5.711c7.897,1.78,14.038,6.604,19.387,12.211c7.217,7.566,5.209,19.193-4.243,26.32
		c-7.466,5.63-15.87,9.523-24.769,12.352c-6.015,2.892-12.743,2.223-18.973,2.669C299.03,455.321,287.765,457.509,276.369,456.507z"
		/>
	<path fill="#BABABA" d="M58.449,430.131c-5.07-1.248-9.998-2.817-14.131-6.2c-0.776-6.82,2.716-11.928,6.911-16.627
		c7.362-8.246,16.445-14.188,26.514-18.515c17.116-7.356,34.942-12.429,53.253-15.846c2.508-0.468,4.613-0.46,6.013,2.025
		c-0.164,3.828-1.312,7.094-5.077,8.861c-2.452-0.98-4.944-1.207-7.529-0.484c-16.418,4.593-32.613,9.658-47.011,19.26
		c-8.234,5.491-15.063,11.722-15.877,22.415C61.358,427.077,60.435,429.006,58.449,430.131z"/>
	<path fill="#BDBDBC" d="M58.449,430.131c0.997-24.336,20.291-31.607,37.961-39.75c9.036-4.164,19.045-6.218,28.62-9.207
		c2.698-0.842,5.657-2.34,6.588,2.19c0.953,0.959,0.919,2.033,0.374,3.167c-12.626,3.591-25.049,7.702-36.665,13.976
		c-5.253,2.837-10.187,6.06-14.242,10.483c-5.41,5.901-8.44,12.323-4.402,20.319c0.797,1.578,1.53,3.321,0.456,5.14
		C70.603,435.248,64.305,433.342,58.449,430.131z"/>
	<path fill="#BBBABB" d="M432.061,425.487c-3.071,2.863-7.039,3.606-10.896,4.613c-4.11,0.241-3.338-3.312-3.816-5.406
		c-2.136-9.362-7.641-15.979-15.47-21.276c-14.327-9.694-30.276-15.243-46.869-19.324c-2.522-0.62-5.079-0.82-7.662-0.294
		c-3.095-1.445-3.52-4.115-3.266-7.102c1.696-3.315,4.615-2.79,7.427-2.244c21.433,4.157,42.05,10.602,60.861,22.006
		c6.489,3.934,12.156,8.875,16.259,15.26C431.247,415.795,433.795,420.19,432.061,425.487z"/>
	<path fill="#C5C4C4" d="M329.283,451.846c6.822-3.932,13.486-8.176,20.5-11.727c11.553-5.849,16.011-20.983,2.712-29.756
		c-4.524-2.984-8.95-6.061-13.885-8.329c-0.618-3.724,1.798-4.901,4.731-5.651c9.506,1.671,17.261,6.881,24.37,12.902
		c10.803,9.15,10.373,21.305-0.5,30.483c-3.156,2.664-6.925,4.493-9.835,7.462C348.242,450.17,338.772,451.063,329.283,451.846z"/>
	<path fill="#BDBDBC" d="M347.96,383.364c1.861-4.807,5.733-1.547,7.723-1.057c17.039,4.193,33.48,9.862,48.157,20.058
		c8.819,6.127,14.428,13.732,15.712,24.402c0.162,1.346,0.477,2.509,1.614,3.332c-5.855,3.258-12.181,5.131-18.728,6.351
		c-0.94-1.513-0.523-3.076,0.174-4.429c4.803-9.319,1.127-16.732-5.859-22.64c-14.255-12.054-31.012-18.832-49.392-21.732
		C346.581,386.082,346.697,384.642,347.96,383.364z"/>
	<path fill="#C9C8C8" d="M153.413,408.263c-6.84,0.519-11.343,4.922-14.822,10.026c-3.244,4.758-2.214,9.497,2.023,13.871
		c10.859,11.213,25.192,14.613,39.491,18.016c6.472,1.54,13.144,2.283,19.752,3.19c2.259,0.31,3.942,1.065,4.917,3.157
		c-4.686-0.041-9.373-0.083-14.059-0.124c-2.381-1.674-5.424,0.309-7.796-1.413c-5.673-0.699-11.607,1.545-17.07-1.515
		c-6.793-3.214-14.283-4.515-21.089-7.691c-1.879-0.876-3.772-1.74-5.539-2.819c-7.848-4.791-16.012-9.592-15.119-20.56
		c0.603-7.419,11.641-16.587,21.679-18.844C148.86,404.25,152.691,403.744,153.413,408.263z"/>
	<path fill="#C3C2C2" d="M357.376,447.231c-0.608-5.525,4.903-5.924,7.596-7.985c13.901-10.641,9.7-22.794-0.664-30.55
		c-6.442-4.821-13.64-8.241-21.018-11.327c-0.621-2.706,1.171-3.66,3.212-4.439c15.492,2.293,28.068,9.776,37.486,22.137
		c4.807,6.309,3.847,13.423-1.392,20.783c-2.279,3.201-5.536,5.373-8.173,8.186C368.909,446.004,363.268,447.29,357.376,447.231z"/>
	<path fill="#C1C0C0" d="M105.151,444.04c-5.843-1.159-11.984-1.186-17.246-4.547c-10.051-16.62-8.134-25.443,8.286-36.366
		c10.806-7.189,22.07-13.448,35.498-14.202c1.871,1.217,2.791,2.827,2.089,5.096c-2.984,3.113-7.173,3.872-10.924,5.435
		c-7.696,3.206-14.677,7.386-20.461,13.492c-7.417,7.83-7.777,13.237-1.393,21.787C103.064,437.499,106.493,439.728,105.151,444.04z
		"/>
	<path fill="#B8B8B8" d="M136.287,375.581c-3.373-3.698-6.936-0.472-10.085,0.158c-18.986,3.798-37.48,9.441-54.682,18.401
		c-12.501,6.511-23.034,15.392-27.201,29.791c-4.138-1.234-8.141-2.706-11-6.208c1.573-0.176,3.243-0.448,4.056-1.917
		c9.914-17.924,27.761-24.792,45.199-31.801c14.28-5.741,29.227-9.582,44.567-11.583c2.367-0.309,4.499-1.107,6.034-3.067
		c2.658,1.492,4.732,3.57,6.228,6.225C138.365,376.403,137.326,376.556,136.287,375.581z"/>
	<path fill="#C1C0C0" d="M374.422,444.038c0.072-3.607,3.123-5.178,5.136-7.432c7.736-8.66,7.504-16.144-0.436-24.472
		c-9.036-9.478-20.111-15.038-32.722-17.877c-1.638-2.295-0.44-3.808,1.41-5.143c6.825-1.175,12.555,2.384,18.516,4.582
		c5.817,2.145,11.17,5.372,16.344,8.858c16.464,11.096,18.701,20.141,8.998,36.932C386.533,443.323,380.051,442.063,374.422,444.038
		z"/>
	<path fill="#BFBEBE" d="M391.669,439.486c-2.35-1.627-0.679-2.919,0.219-4.487c6.46-11.284,3.975-20.713-6.788-28.468
		c-11.295-8.138-23.749-13.504-37.135-16.941c-0.37-0.518-0.371-1.037-0.002-1.556c1.501-1.41,2.83-2.383,5.325-1.711
		c15.524,4.179,30.478,9.787,43.047,19.967c9.393,7.607,15.048,15.89,6.103,30.159C399.088,438.313,395.441,439.121,391.669,439.486
		z"/>
	<path fill="#BFBEBE" d="M131.612,389.591c-12.773,3.386-24.802,8.269-35.699,16.005c-12.844,9.117-14.784,15.284-8.326,29.803
		c0.559,1.257,2.041,2.594,0.32,4.093c-3.889,0.043-7.555-0.701-10.767-3.045c-9.296-14.842-2.81-23.225,6.714-30.693
		c13.129-10.295,28.633-16.081,44.8-19.952c0.882-0.211,1.968,0.43,2.959,0.675C132.437,387.516,132.437,388.553,131.612,389.591z"
		/>
	<path fill="#C3C3C2" d="M105.151,444.04c-1.207-2.578-2.716-4.895-4.651-7.055c-8.494-9.478-8.169-16.451,0.577-25.465
		c8.904-9.178,19.81-14.467,32.1-17.264c2.67-0.524,3.493,0.939,3.519,3.263c-1.716,3.333-5.202,3.898-8.194,5.282
		c-3.973,1.837-7.744,4.096-11.246,6.686c-13.195,9.757-13.026,19.761,0.162,29.668c2.561,1.924,7.171,3.065,4.85,8.095
		C116.355,447.285,110.68,446.048,105.151,444.04z"/>
	<path fill="#B9B9B9" d="M432.061,425.487c-4.185-18.832-18.646-27.421-34.512-34.592c-14.857-6.715-30.288-11.586-46.333-14.546
		c-2.314-0.427-4.486-1.5-6.37,0.789c-4.107,0.966-5.417-2.728-7.78-4.668c0.59-1.486,1.627-2.524,3.113-3.112
		c27.175,5.992,54.517,11.404,79.055,25.616c10.463,6.061,18.533,13.971,22.2,25.781
		C438.768,423.238,435.576,424.682,432.061,425.487z"/>
	<path fill="#5F5F5F" d="M296.261,459.478c2.78,0.15,5.561,0.299,8.841,0.476c-10.08,6.73-109.26,6.997-131.064,0.87
		c3.401-1.944,6.506-0.755,9.268-1.34C220.958,461.626,258.609,461.636,296.261,459.478z"/>
	<path fill="#C6C6C6" d="M151.844,452.007c-4.158-0.512-8.566,0.779-12.448-1.724c-7.224-2.058-13.897-5.158-19.988-9.66
		c-11.902-8.796-12.402-22.834-0.776-31.916c5.694-4.448,11.813-8.268,19.104-9.669c1.672,0.168,3.132,0.654,3.666,2.492
		c-0.46,3.272-3.171,4.541-5.515,6.105c-3.247,2.166-6.337,4.518-9.023,7.362c-5.967,6.318-5.765,13.623,0.757,19.818
		c5.542,5.263,12.649,8.008,19.28,11.514C149.22,447.555,152.815,447.848,151.844,452.007z"/>
	<path fill="#B7B7B8" d="M441.435,420.754c-0.897-0.423-2.379-0.643-2.607-1.298c-6.184-17.809-21.969-24.479-37.159-31.254
		c-17.379-7.752-35.785-12.542-54.538-15.919c-2.429-0.438-5.106-0.844-6.951-2.925c1.038-1.037,2.075-2.075,3.113-3.112
		c6.212,7.468,15.592,5.488,23.513,7.587c23.493,6.225,46.56,13.003,66.502,27.861c5.923,4.413,8.237,11.039,12.921,16.066
		C445.116,419.533,443.59,420.647,441.435,420.754z"/>
	<path fill="#C5C4C4" d="M137.852,400.479c-7.884,1.004-13.761,5.782-19.277,10.828c-9.728,8.901-8.82,20.619,2.177,28.01
		c5.973,4.014,12.413,7.333,18.643,10.966c-5.918,0.166-11.669-0.608-17.128-3.033c-0.043-4.658-4.358-5.452-7.096-7.378
		c-12.212-8.59-13.215-18.321-2.779-28.759c6.745-6.746,15.525-9.84,23.872-13.739C137.65,397.971,138.656,398.762,137.852,400.479z
		"/>
	<path fill="#C7C7C6" d="M151.844,452.007c-2.911-4.879-8.551-5.447-12.878-8.078c-3.308-2.012-7.214-3.151-10.263-5.459
		c-10.635-8.048-12.514-19.993,2.623-30.049c3.21-2.132,6.425-4.256,9.637-6.384c2.675-0.65,4.684-0.292,4.693,3.097
		c-7.933,1.434-13.177,6.867-17.798,12.728c-4.457,5.653-2.329,11.302,2.127,15.897c6.606,6.812,15.132,10.405,23.977,13.434
		c4.235,1.45,9.333,1.54,11.885,6.278C161.202,452.774,156.268,454.824,151.844,452.007z"/>
	<path fill="#D3D1D0" d="M102.045,461.186c2.585,1.571,5.753,2.168,7.79,4.656c-4.968,1.046-9.116-1.886-13.304-3.41
		c-19.201-6.984-37.742-15.284-50.518-32.402c3.006-0.058,5.712,0.657,7.78,3.016c7.088,5.059,14.278,9.974,21.345,15.065
		C83.255,454.226,93.612,455.728,102.045,461.186z"/>
	<path fill="#E7E6E5" d="M60.016,450.293c-9.933-2.254-23.497-17.619-23.349-26.449c0.601,1.476,1.642,2.509,3.122,3.101
		c1.655,5.243,5.767,8.643,9.336,12.451c2.156,1.448,4.015,3.292,6.224,4.669c0.594,1.482,1.631,2.521,3.115,3.111
		c0.841,0.876,2.531,1.326,1.558,3.111L60.016,450.293z"/>
	<path fill="#C2C0C0" d="M74.03,448.731c-6.758-5.211-14.738-8.846-20.237-15.684c3.055,1.263,6.632,1.005,9.364,3.212
		c0.131,4.837,4.938,4.612,7.491,6.804c2.479,2.128,5.35,3.8,8.048,5.672C77.14,450.109,75.585,449.826,74.03,448.731z"/>
	<path fill="#7D7C7C" d="M399.27,443.993c-0.634-0.587-1.268-1.174-1.903-1.762c1.905-1.739,4.129-1.643,6.427-1.114
		C402.868,442.99,400.958,443.316,399.27,443.993z"/>
	<path fill="#CBCBCB" d="M182.917,454.987c2.627,0.319,5.557-1.032,7.797,1.414C188.065,456.204,185.164,457.402,182.917,454.987z"
		/>
	<path fill="#FFFFFF" d="M404.031,235.605c4.287-9.984,5.476-20.739,7.765-31.22c6.696-4.425,13.521-8.549,21.762-9.396
		c7.337-0.438,14.571,0.522,21.793,1.625c7.747,4.515,15.933,8.512,20.235,17.103c0.532,4.151,1.064,8.302,1.596,12.453
		c-0.024,7.103-3.096,13.486-4.776,20.197c-4.153,3.366-5.584,8.742-9.22,12.49c-3.938,5.413-9.056,9.644-14.045,14.004
		c-2.679,1.476-4.721,3.609-6.359,6.16c-5.569,1.724-9.496,5.887-13.896,9.347c-4.39,2.19-8.84,4.285-12.468,7.707
		c-4.529,1.355-8.762,3.289-12.413,6.359c-4.586,1.219-8.806,3.174-12.486,6.212c-3.109,1.094-6.217,2.188-9.326,3.283
		c-1.005-0.091-2.011-0.183-3.016-0.275c-1.243-5.312,3.341-8.768,4.241-13.4c1.632-4.561,3.647-8.932,6.452-12.907
		C396.213,269.229,401.872,252.915,404.031,235.605z"/>
	<path fill="#F1F1F1" d="M441.348,437.838c0-2.247,1.042-3.8,3.111-4.669C444.482,435.431,444.513,437.7,441.348,437.838z"/>
	<path fill="#C2BFBE" d="M335.507,468.962c14.527-3.63,29.054-7.26,43.581-10.891c-4.961,4.062-11.188,5.059-17.084,6.317
		C353.253,466.255,344.647,469.268,335.507,468.962z"/>
	<path fill="#C2BFBE" d="M321.499,470.517c3.83-3.099,8.322-0.879,12.454-1.549C330.123,472.067,325.632,469.853,321.499,470.517z"
		/>
	<path fill="#E3E1E0" d="M60.023,450.288c-0.519-1.037-1.039-2.074-1.558-3.111c3.205,0.538,6.137,1.531,7.781,4.669
		C64.172,451.326,62.097,450.807,60.023,450.288z"/>
	<path fill="#E3E1E0" d="M55.35,444.066c-3.153-0.119-4.853-2.175-6.224-4.669C52.282,439.51,53.984,441.564,55.35,444.066z"/>
	<path fill="#C9C7C6" d="M74.03,448.731c1.556,0.001,3.111,0.002,4.667,0.004c7.61,3.999,16.365,5.54,23.351,10.88
		c-0.001,0.524-0.002,1.048-0.003,1.572C92.166,458.25,82.018,455.92,74.03,448.731z"/>
	<path fill="#979797" d="M142.503,377.082c24.816,20.88,53.341,31.283,85.836,33.046c39.887,2.164,74.862-8.661,105.172-34.661
		c0.89-0.763,2.339-0.874,3.527-1.289c11.138,6.596,12.372,14.298,3.347,22.868c-7.739,7.349-17.721,10.514-27.623,13.464
		c-15.936,4.747-32.345,6.536-48.896,8.084c-29.162,2.727-57.858,0.378-86.418-5.258c-10.973-2.166-21.385-6.029-31.35-11.124
		c-4.982-2.547-9.133-5.944-11.564-11.064C131.201,384.125,134.829,377.818,142.503,377.082z"/>
	<path fill="#E0E0E0" d="M144.072,330.435c-0.031,2.227,1.021,3.764,2.999,4.712c0.118,1.246,0.361,2.429,1.59,3.106
		c2.439,1.871,4.094,4.385,5.715,6.931c1.507,1.53,1.22,3.75,2.129,5.512c-0.393,3.806-2.027,1.511-3.421,0.722
		c-6.614-3.746-10.488-10.571-16.668-14.8c-1.853-5.101-5.883-8.562-9.367-12.434c-2.632-4.658-5.265-9.315-7.899-13.973
		c-6.745-5.05-7.655-13.323-11.165-20.166c-2.696-7.207-6.19-14.203-5.89-22.208c2.592-9.434,4.317-19.09,7.327-28.418
		c0.872-2.703,1.683-5.438,3.146-7.874c2.742-4.568,4.903-3.508,6.575,0.842c0.088,7.401,0.925,14.695,3.12,21.794
		c-0.038,6.914,1.076,13.648,3.147,20.234c1.004,6.363,1.808,12.775,4.662,18.676c0.464,5.027,1.94,9.719,4.629,14.011
		c0.509,4.556,1.425,8.959,4.68,12.486c0.533,1.544,1.067,3.088,1.6,4.631C142.011,326.291,143.042,328.363,144.072,330.435z"/>
	<path fill="#C0BFBF" d="M156.504,350.697c-1.044-1.544-2.088-3.089-3.132-4.633c0.279-4.866,3.183-3.503,5.929-2.495
		c19.788,7.261,40.196,11.705,61.232,12.931c49.817,2.903,96.298-6.717,137.217-36.977c6.725-4.973,12.11-11.32,18.173-16.969
		c2.602-2.424,5.047-5.545,9.327-3.235c-2.025,4.112-4.051,8.225-6.075,12.337c-0.546,0.556-1.092,1.113-1.639,1.669
		c-7.351,2.856-12.212,9.151-18.542,13.47c-28.013,19.114-58.724,30.731-92.351,34.797c-36.1,4.365-71.426,1.259-105.869-10.744
		C159.501,350.404,157.968,349.159,156.504,350.697z"/>
	<path fill="#B7B7B8" d="M142.503,377.082c-8.594,4.132-10.123,10.222-3.991,16.962c6.133,6.741,14.458,10.077,22.78,12.739
		c16.729,5.352,33.989,7.941,51.531,9.539c13.451,1.225,26.909,2.01,40.246,1.043c27.211-1.971,54.644-3.67,79.528-16.932
		c2.763-1.472,5.36-3.063,7.548-5.356c5.976-6.261,6.103-10.31,0.387-16.779c-1.193-1.35-2.331-2.748-3.495-4.122
		c0.009-0.568,0.019-1.138,0.029-1.708c3.625-0.163,4.909,3.575,7.78,4.668c1.038,2.076,2.075,4.151,3.113,6.227
		c0.001,1.556,0.002,3.113,0.004,4.669c-0.002,0.519-0.002,1.038,0.002,1.556c-0.521,1.556-1.043,3.112-1.564,4.667
		c-1.481,0.594-2.517,1.633-3.112,3.113c-2.097,1.015-3.645,2.582-4.679,4.664c-2.583,1.561-5.728,2.18-7.775,4.64
		c-4.71,0.097-8.515,2.595-12.47,4.695c-1.189,1.651-3.049,2.13-4.815,2.784c-2.17,0.653-4.423,1.01-6.54,1.867
		c-4.423,1.87-9.278,1.725-13.826,3.029c-3.674,0.646-7.382,1.071-11.027,1.907c-3.967,0.423-7.961,0.598-11.855,1.601
		c-20.306,0.574-40.607,0.597-60.904,0.034c-3.882-0.977-7.876-1.215-11.842-1.607c-3.623-0.826-7.319-1.281-10.98-1.905
		c-4.473-1.263-9.14-1.704-13.591-3.069c-2.069-0.66-4.179-1.195-6.291-1.717c-1.684-0.527-3.357-1.089-4.834-2.1
		c-0.222-0.271-0.439-0.548-0.657-0.825c-2.177-2.088-5.046-2.441-7.791-3.106c-2.158-2.102-5.027-2.442-7.756-3.128
		c-1.564-1.033-3.129-2.065-4.693-3.097c-0.671-1.25-1.833-1.522-3.111-1.559c-0.529-1.035-1.058-2.07-1.588-3.104
		c-0.57-1.495-1.611-2.522-3.088-3.118c-0.522-1.555-1.043-3.111-1.565-4.666c0-1.038,0.001-2.075,0.001-3.113
		c0.002-1.038,0.003-2.076,0.005-3.114c1.556-2.594,3.113-5.189,4.669-7.783c1.039-0.001,2.077-0.001,3.116-0.002
		C140.665,375.607,141.823,375.852,142.503,377.082z"/>
	<path fill="#C3C3C3" d="M109.807,289.974c3.115,6.746,6.229,13.492,9.343,20.237c-9.376-1.934-13.223-10.207-18.759-16.483
		c-25.447-28.849-30.937-72.106-13.54-105.718c1.439-2.78,2.775-5.601,5.857-6.982c3.806,6.067,1.881,12.611,1.607,19.016
		c-9.712,24.211-7.417,47.861,3.789,70.894C101.354,277.617,105.177,284.077,109.807,289.974z"/>
	<path fill="#D2D2D2" d="M92.688,201.262c0.007-6.745,0.013-13.49,0.02-20.235c0.529-3.124-1.268-6.631,1.547-9.378
		c4.671,0.532,9.341,1.064,14.012,1.597c0.006,0.515,0.01,1.031,0.013,1.546c-0.183,3.007-1.699,5.766-3.929,7.146
		c-8.666,5.362-8.789,13.462-7.873,22.078c-0.388,4.448,1.26,9.274-2.451,13.092C87.674,212.324,91.492,206.683,92.688,201.262z"/>
	<path fill="#DDD3C9" d="M211.026,39.438c2.592-2.607,5.184-5.214,7.776-7.82c1.556,0.001,3.111,0.002,4.667,0.003
		c0.892,1.402,0.203,2.667-0.324,3.951c-1.11,2.197-2.885,3.783-4.815,5.223c-2.074,1.414-2.7,3.633-3.248,5.899
		c-2.005,9.291,2.616,16.607,7.27,23.799c3.792,5.86,8.288,11.249,11.948,17.223c9.455,15.735,6.585,31.316-0.582,46.852
		c-0.694,0.51-1.467,0.819-2.317,0.947c-1.335,0.044-2.508-0.291-3.329-1.436c3.793-5.532,5.398-11.592,4.775-18.317
		c-0.211-2.276-0.499-5.024,0.516-6.852c4.311-7.764,0.612-13.728-3.681-19.712c-0.439-4.872-4.71-7.344-7.286-10.673
		C213.364,66.855,206.832,54.806,211.026,39.438z"/>
	<path fill="#CFC1B3" d="M229.642,30.039c5.283-4.91,12.306-4.783,18.707-5.918c4.653-0.825,6.432,3.275,3.579,7.644
		c-5.048,7.73-10.866,14.994-9.882,25.195c0.709,7.346,3.467,13.889,6.585,20.374c2.777,5.774,6.211,11.316,5.954,18.083
		c0.847,3.262,2.034,6.558-0.919,9.452c-4.557-5.769-3.185-13.552-6.688-19.682c-3.715-6.916-7.804-13.687-8.474-21.791
		c-0.055-5.512-0.149-11.023,0.045-16.529c0.37-4.107,2.003-7.692,4.546-10.887c1.404-1.792,3.457-3.303,2.636-6.053
		c-2.009-1.771-4.166-0.824-6.289-0.361c-1.642,0.466-3.264,0.978-4.893,1.488c-0.687,0.194-1.386,0.285-2.099,0.303
		C231.341,31.288,230.357,30.948,229.642,30.039z"/>
	<path fill="#C8C0B6" d="M253.033,104.765c2.808-2.736,1.025-6.234,1.554-9.349c3.242,2.387-0.187,6.98,3.093,9.355
		c2.992,4.631,0.837,8.833-1.335,12.84c-3.018,5.567-6.365,10.956-9.571,16.421c-0.216,0.277-0.433,0.553-0.649,0.83
		c-1.077,0.406-2.06,0.271-2.935-0.505c-1.253-2.106-0.722-4.07,0.462-5.986c0.372-0.574,0.806-1.106,1.267-1.611
		c1.702-1.619,3.009-3.498,3.706-5.773c1.731-4.988,5.892-9.328,3.999-15.266C252.756,105.401,252.894,105.083,253.033,104.765z"/>
	<path fill="#CBBDAE" d="M229.642,30.039c1.058,0.014,2.116,0.028,3.175,0.042c-1.907,5.563-6.002,6.028-10.88,4.668
		c0.51-1.043,1.021-2.086,1.532-3.128C225.527,31.094,227.584,30.566,229.642,30.039z"/>
	<path fill="#A08E77" d="M228.07,134.078c1.068,0.159,2.137,0.319,3.205,0.478c5.115,7.319,10.317,0.805,15.483,0.098
		c0,0,0.016-0.621,0.016-0.622c1.594,0.023,3.189,0.047,4.783,0.07c0,0-0.244,0.455-0.244,0.455
		c-2.425,7.343-9.458,13.266-16.426,13.833c-7.966,0.649-11.726-5.604-8.304-13.811C227.078,134.413,227.574,134.246,228.07,134.078
		z"/>
	<path fill="#E5E6E5" d="M226.559,114.101c5.97,7.789,0.432,13.74-3.195,19.995c-0.323,0.354-0.646,0.708-0.965,1.067
		c-15.004,1.621-29.952,4.856-45.135,1.657c-1.279-1.269-2.694-2.406-4.005-3.631c-3.801-3.553-3.327-7.281,0.201-10.756
		c1.481-1.458,3.321-2.698,5.274-3.187c15.032-3.77,30.22-6.538,45.809-6.251C225.309,113.009,225.927,113.653,226.559,114.101z"/>
	<path fill="#A3937E" d="M226.583,134.58c0.149,4.257-1.349,9.371,3.919,11.529c5.54,2.269,9.996-1.185,14.052-4.309
		c2.581-1.988,4.528-4.8,6.76-7.242c1.083,0.021,2.167,0.042,3.25,0.062c0.418,0.648,0.534,1.341,0.312,2.083
		c-0.793,3.193-5.7,5.681-3.724,8.696c2.519,3.843,7.422,2.104,11.537,1.77c4.882-0.397,10.213-3.422,14.463,1.765
		c0.296,1.265,0.074,2.421-0.67,3.487c-6.613,5.257-15.133,4.437-22.213,4.35c-15.62-0.192-31.34,2.135-46.916-0.653
		c-3.811-1.649-7.88-2.512-11.824-3.77c-1.418-1.011-2.363-2.246-1.909-4.121c4.202-4.035,9.172-2.321,13.904-1.683
		c12.018,1.621,12.006,1.694,14.844-10.024c0.184-0.76,0.6-1.404,1.174-1.94c0,0-0.177-0.481-0.177-0.481
		C224.437,134.258,225.51,134.419,226.583,134.58z"/>
	<path fill="#A79680" d="M223.542,134.578c1.333,13.121-1.816,16.02-14.56,14.015c-4.969-0.782-10.05-1.669-15.108-0.251
		c-7.91-0.946-14.028-4.974-18.965-11.03c0.188-0.431,0.382-0.859,0.584-1.284c0.385-0.687,0.807-0.676,1.26-0.066
		C192.381,136.59,207.897,133.414,223.542,134.578z"/>
	<path fill="#E2E2E2" d="M176.753,135.962l-0.626,0.145c0,0-0.638-0.081-0.636-0.08c-0.514-0.033-1.034-0.039-1.546-0.105
		c-4.29-0.555-10.47,2.022-11.528-4.601c-0.893-5.591,4.205-8.717,8.391-10.943c7.826-4.162,16.858-4.374,25.38-6.09
		c8.514-1.715,17.295-2.098,25.955-3.107c2.356-0.275,4.145,0.131,4.417,2.922c-14.77-1.204-29.041,2.216-43.329,5.02
		c-3.326,0.653-6.44,3.128-9.283,5.257c-2.335,1.749-2.776,4.421-0.309,6.585C175.243,132.371,176.778,133.625,176.753,135.962z"/>
	<path fill="#A4917A" d="M195.429,151.454c3.931-0.007,7.993-0.471,10.898,3.113c-2.267,2.349-5.117,1.964-7.902,1.585
		c-13.848-1.885-26.867-5.89-37.864-14.99c-1.138-0.537-2.16-1.214-2.794-2.348c0.163-0.425,0.35-0.84,0.562-1.243
		c3.548,0.001,7.094,0,10.64,0c4.253,4.127,9.056,7.218,15.021,8.278C188.318,146.617,191.912,148.979,195.429,151.454z"/>
	<path fill="#A6947C" d="M195.429,151.454c-7.022-2.233-14.163-4.163-21.008-6.849c-2.711-1.064-5.195-3.483-5.452-7.034
		c1.981-0.085,3.963-0.171,5.942-0.258c0.252,0.024,0.556-0.034,0.754,0.085c6.076,3.637,12.142,7.292,18.209,10.944
		C194.393,149.379,194.911,150.416,195.429,151.454z"/>
	<path fill="#DDDDDC" d="M119.144,232.387c-1.783-1.327-3.237-4.775-5.085,0.387c-3.13,8.742-5.881,17.521-7.509,26.679
		c-0.534,3.003-1.951,5.848-2.965,8.766c-2.802,0.135-3.332-2.153-3.809-4.005c-2.739-10.629-5.779-21.216-5.906-32.324
		c5.291-10.857,12.33-20.593,19.691-30.108c0.991-1.281,2.506-1.786,4.033-0.513c0.088,8.326-0.527,16.697,1.574,24.896
		C119.159,228.238,119.151,230.312,119.144,232.387z"/>
	<path fill="#E2E3E2" d="M238.449,201.221c7.314-0.242,14.945,1.454,21.685,5.341c21.09,12.162,21.767,33.219,1.788,46.973
		c-14.485,9.972-40.357,8.565-53.685-2.919c-15.29-13.174-12.857-33.319,5.151-43.556
		C221.021,202.722,229.211,201.16,238.449,201.221z"/>
	<path fill="#DAD9D9" d="M173.64,254.179c-9.773-10.129-11.226-29.753-3.113-42.024c0.125,5.441-2.833,10.158-3.343,15.608
		C166.272,237.536,170.583,245.613,173.64,254.179z"/>
	<path fill="#DAD9D9" d="M182.979,196.592c1.852-5.055,1.62-10.318,1.556-15.564C191.159,185.851,190.748,189.961,182.979,196.592z"
		/>
	<path fill="#DAD9D9" d="M229.672,283.752c-3.114-0.509-6.611,1.273-9.339-1.556C223.448,282.704,226.944,280.922,229.672,283.752z"
		/>
	<path fill="#DAD9D9" d="M251.462,282.195c-2.177,2.603-5.161,1.174-7.782,1.556C245.857,281.148,248.841,282.577,251.462,282.195z"
		/>
	<path fill="#C0BFBF" d="M385.251,299.318c-4.168,0.436-6.993,3.063-9.73,5.889c-28.095,29.01-62.991,44.061-102.349,50.252
		c-38.989,6.133-77.014,2.751-114.137-10.617c-2.329-0.839-4.38-2.052-5.663,1.221c-2.003-2.342-4.281-4.518-4.711-7.809
		c9.255,3.093,18.423,6.485,27.782,9.224c28.859,8.448,58.227,9.572,88.034,6.456c31.47-3.29,60.172-13.809,86.371-31.244
		c12.339-8.212,22.315-19.088,31.834-30.372c2.141-2.539,4.78-4.658,7.189-6.97C389.652,290.441,386.354,294.517,385.251,299.318z"
		/>
	<path fill="#634119" d="M124.086,143.906c2.509-0.16,5.172-0.898,6.123,2.717c2.032,7.721,6.919,13.483,12.977,18.392
		c0.918,0.744,2.622,1.454,1.182,2.784c-0.722,0.667-2.364,0.338-3.592,0.457C133.094,161.589,128.722,152.657,124.086,143.906z"/>
	<path fill="#A08F7A" d="M161.102,139.098c13.187,10.676,28.541,15.017,45.225,15.468c15.323,1.723,30.703-0.212,46.086,0.373
		c7.499,0.285,16.302-0.118,23.951-3.486c10.609-4.093,21.426-7.717,31.138-13.829c1.939-0.559,3.189,0.828,4.641,1.642
		c0.003,8.302-6.128,11.389-12.361,14.046c-13.003,5.543-26.947,7.298-40.761,9.385c-23.385,3.533-46.411,0.444-69.299-4.306
		c-6.881-1.428-13.551-3.705-19.733-6.993C165.209,148.856,160.436,145.805,161.102,139.098z"/>
	<path fill="#99856C" d="M161.102,139.098c4.856,11.766,16.21,14.073,26.412,16.521c28.152,6.755,56.583,8.946,85.345,2.635
		c8.046-1.766,15.973-3.699,23.872-5.987c7.215-2.09,12.225-6.355,15.412-13.001c1.036-0.233,2.073-0.466,3.11-0.699
		c1.048,0.164,2.096,0.328,3.144,0.493c2.473,3.308,0.38,5.756-1.635,8.109c-4.409,5.146-9.662,9.082-16.304,10.933
		c-27.348,9.778-55.745,10.872-84.248,9.21c-15.208-0.887-30.107-4.643-44.492-9.975c-5.772-2.14-10.168-6.089-14.085-10.651
		c-1.955-2.277-3.271-4.744-1.113-7.665c0.39-0.234,0.807-0.303,1.249-0.206C158.879,138.908,159.991,139.003,161.102,139.098z"/>
	<path fill="#E5E5E5" d="M256.144,134.132c2.121-6.657,5.725-12.565,9.326-18.474c10.547-2.677,20.581,0.519,29.955,4.238
		c7.773,3.084,10.955,11.795,0.278,17.425C282.28,139.185,269.103,137.999,256.144,134.132z"/>
	<path fill="#E3E3E2" d="M296.599,135.924c5.797-7.601,3.53-14.374-6.297-16.835c-8.096-2.027-16.336-3.897-24.833-3.432
		c2.623-5.487,7.677-2.235,10.851-1.952c8.041,0.716,15.909,3.315,23.862,5.091c2.59,0.578,4.949,1.583,6.813,3.449
		c2.73,2.733,5.84,5.477,4.551,9.949c-1.404,4.869-5.621,3.496-9.072,3.704c-1.033,0.062-2.066,0.108-3.099,0.161
		C298.412,136.812,297.49,136.692,296.599,135.924z"/>
	<path fill="#A8967F" d="M296.599,135.924c0.927,0.044,1.855,0.088,2.78,0.133c0.224,0.413,0.417,0.839,0.578,1.28
		c-5.02,6.037-11.688,8.941-19.265,10.145c-5.675-3.016-11.613-5.293-17.924-6.581c-3.318-0.677-6.427-1.768-8.197-5.012
		c-0.001-0.424-0.003-0.848-0.008-1.271c0.527-0.162,1.054-0.324,1.58-0.487C269.629,134.729,283.114,135.326,296.599,135.924z"/>
	<path fill="#A6947D" d="M281.034,146.784c6.306-3.148,12.613-6.297,18.921-9.446c2.517,0.095,5.032,0.19,7.547,0.286
		c-8.416,9.03-19.158,12.824-31.138,13.829c0-1.037,0.001-2.074,0.001-3.111C277.535,146.665,279.033,145.97,281.034,146.784z"/>
	<path fill="#DCDBDA" d="M295.048,109.438c8.255,3.682,17.695,4.463,25.045,10.388c7.151,5.764,7.12,13.849-0.175,17.565
		c2.236-13.473-3.039-20.317-18.334-23.153c-4.037-0.749-7.929-1.483-11.537-3.721C291.569,108.674,293.446,109.755,295.048,109.438
		z"/>
	<path fill="#D9D9D8" d="M117.593,201.268c-5.319,3.676-8.271,9.318-11.836,14.421c-3.459,4.951-6.641,10.095-9.944,15.154
		c-6.141-4.043-4.202-8.986-1.561-14.007c0.004-4.673,0.008-9.345,0.012-14.018c5.302-6.856,11.432-13.002,16.898-19.722
		c1.567-1.926,3.459-4.036,6.452-2.068C117.607,187.775,117.6,194.521,117.593,201.268z"/>
	<path fill="#D5D5D5" d="M117.614,181.028c-7.31,2.425-9.832,9.803-14.753,14.679c-2.714,2.689-5.005,5.585-8.598,7.111
		c-3.791-13.575,6.531-20.091,14.017-28.026c3.944,0.827,9.66-2.47,10.889,4.677c-0.006,0.517-0.01,1.033-0.01,1.55
		C118.645,181.025,118.129,181.028,117.614,181.028z"/>
	<path fill="#7A5D37" d="M173.213,171.923l-0.596,0.15c0,0-0.521-0.327-0.521-0.327c-8.868-6.466-20.015-9.359-27.324-18.474
		c-2.897-3.613-2.618-9.867-8.645-10.936c-1.055-0.109-2.11-0.22-3.164-0.331c0.201-0.348,0.364-0.713,0.489-1.095
		c0.946-0.152,1.891-0.304,2.836-0.456c2.072,0.055,4.145,0.111,6.217,0.166c4.36,14.449,15.743,21.292,28.665,26.463
		c2.979,1.192,6.407,1.398,9.701,4.148C177.692,171.519,175.453,171.721,173.213,171.923z"/>
	<path fill="#937D60" d="M301.268,156.124c7.556-3.834,15.323-7.457,17.129-17.063c3.629-0.008,7.258-0.016,10.888-0.024
		c0.355,0.256,0.739,0.314,1.151,0.173c0.214,0.392,0.443,0.776,0.686,1.15c-0.599,0.172-1.199,0.344-1.799,0.516
		c-0.943,0.658-1.896,1.3-2.957,1.758c-8.039,11.354-19.267,17.968-32.36,21.827c-4.436,1.308-8.992,2.037-13.529,2.906
		c-2.524,0.096-5.054,0.213-7.184-1.526c-0.791-2.286,0.76-2.443,2.362-2.669C284.494,161.928,293.012,159.499,301.268,156.124z"/>
	<path fill="#8B7355" d="M281.035,165.463c10.592-2.083,21.026-4.643,30.158-10.77c4.444-2.981,9.195-5.682,10.744-11.484
		c0.522-1.955,2.336-2.593,4.307-2.545c1.905,2.69-0.112,4.341-1.623,6.126c-2.389,7.783-9.538,10.272-15.572,14.003
		c-17.21,7.886-35.287,11.926-54.207,12.232c-14.225-0.012-28.451-0.023-42.681-0.036c-5.062-0.954-10.12-1.908-15.177-2.861
		c-0.256-2.036-7.349,1.241-3.249-4.188c2.743-1.237,5.471-0.674,8.31-0.227C228.382,169.858,254.714,168.407,281.035,165.463z"/>
	<path fill="#D7D7D7" d="M144.088,140.082c0.01-0.368-0.004-0.735-0.041-1.101c-4.589-16.378-3.616-18.126,15.573-27.976
		c1.52,0,3.04,0,4.56,0c-12.056,5.814-20.615,13.195-15.374,28.19c0.381,0.663,0.315,1.279-0.198,1.847
		c-1.042,0.539-2.02,0.31-2.971-0.247C145.121,140.558,144.604,140.32,144.088,140.082z"/>
	<path fill="#8B7150" d="M145.637,140.796c1.019-0.129,2.038-0.257,3.057-0.386c6.435,8.128,12.969,16.135,23.493,19.279
		c3.932,2.599,9.34,2.242,12.57,6.249c-0.074,0.362-0.15,0.724-0.225,1.087C167.729,163.973,152.369,158.781,145.637,140.796z"/>
	<path fill="#8B7150" d="M192.319,167.018c1.555,1.037,3.11,2.074,4.666,3.11c-4.433,0.099-8.596-0.886-12.453-3.103
		c0,0,0.008-0.013,0.008-0.013c2.088-1.959,4.417-1.985,6.892-0.863C191.729,166.436,192.024,166.727,192.319,167.018z"/>
	<path fill="#978164" d="M301.268,156.124c-6.893,4.982-15.211,5.751-23.108,7.72c-1.697,0.423-3.661-0.14-4.908,1.618
		c-3.785,3.732-8.865,2.505-13.254,2.898c-24.319,2.177-48.56,0.892-72.488-3.963c-11.953-2.425-23.522-6.235-32.199-15.718
		c-2.597-2.839-4.824-5.596-1.928-9.479c1.046-0.059,2.091-0.119,3.137-0.178c1.25,8.098,7.241,12.459,13.788,15.266
		c15.456,6.627,31.866,10.058,48.607,11.084C246.856,167.082,274.428,164.641,301.268,156.124z"/>
	<path fill="#8E785C" d="M153.383,139.199c-0.106,9.583,7.383,13.496,14.122,16.503c16.285,7.266,33.69,9.875,51.489,11.707
		c16.038,1.651,31.696-0.472,47.521-0.743c2.252-0.039,4.491-0.786,6.736-1.206c2.595,0.001,5.189,0.002,7.784,0.002
		c-5.981,3.388-12.963,3.98-19.277,4.177c-19.819,0.616-39.781,2.228-59.467-1.734c-3.363-0.677-6.636-0.75-9.972-0.888
		c0,0-0.001,0-0.001,0c-6.952-1.398-13.661-3.585-20.235-6.214c-11.424-2.638-19.255-9.396-23.39-20.394
		c0.038-0.405,0.075-0.81,0.113-1.214C150.332,139.197,151.857,139.198,153.383,139.199z"/>
	<path fill="#856B49" d="M254.842,173.025c7.498-1.151,14.966-2.601,22.502-3.382c11.11-1.151,20.976-6.497,31.705-8.85
		c-8.689,6.456-19.264,7.825-29.225,10.857c-1.174,0.357-2.274,0.956-3.408,1.443c-4.056,0.117-8.112,0.234-12.167,0.351
		C261.115,173.305,257.979,173.165,254.842,173.025z"/>
	<path fill="#856946" d="M324.622,146.79c0.54-2.043,1.081-4.085,1.622-6.127c1.026,0.07,2.052,0.138,3.078,0.209
		C329.394,144.149,328.438,146.605,324.622,146.79z"/>
	<path fill="#CDCDCC" d="M313.69,412.916c1.137-1.791,2.963-1.497,4.676-1.547c8.004-0.094,11.633,5.402,13.399,11.813
		c1.536,5.574-3.228,9.075-7.044,11.901c-11.066,8.197-24.397,10.582-37.43,13.6c-15.116,3.502-30.738,4.393-45.942,4.248
		c-26.146-0.25-52.492-2.106-77.238-12.284c-3.298-1.356-6.522-3.262-9.246-5.549c-3.666-3.079-8.584-6.339-7.055-11.908
		c1.761-6.409,5.387-11.911,13.393-11.821c0,0-0.006,0.001-0.006,0.001c1.015,2.78-1.252,4.202-2.512,6.028
		c-4.678,6.783-4.109,10.906,2.728,15.588c5.551,3.8,11.533,6.876,18.197,8.385c36.512,9.485,73.189,9.524,109.958,1.853
		c8.154-1.701,15.86-4.924,22.909-9.379c8.386-5.3,8.948-8.873,3.223-16.803C314.784,415.774,313.846,414.542,313.69,412.916z"/>
	<path fill="#C6C5C5" d="M94.252,216.836c0.686,4.651-1.524,9.624,1.561,14.007c0.783,12.834,3.266,25.314,7.771,37.374
		c0.595,7.675,4.023,14.54,6.223,21.756c-12.242-9.727-17.103-23.753-21.018-37.918c-4.343-15.714-3.068-31.675,0.946-47.406
		c0.413-1.618,1.479-2.685,2.953-3.387C93.425,206.432,91.108,211.908,94.252,216.836z"/>
	<path fill="#D2D3D3" d="M282.591,419.163c3.388-2.123,7.18-1.463,10.86-1.575c4.153-1.524,7.684-1.01,9.791,3.31
		c2.053,4.209,0.226,7.605-2.793,10.429c-8.994,8.414-20.609,10.965-32.057,12.742c-23.191,3.6-46.422,3.447-69.316-2.743
		c-7.325-1.98-14.333-4.653-19.948-9.997c-2.995-2.851-4.842-6.221-2.792-10.432c2.106-4.325,5.636-4.83,9.787-3.308
		c3.681,0.109,7.474-0.551,10.864,1.573c2.983,8.942,9.89,12.518,18.588,14.162c16.173,3.057,32.256,3.056,48.428,0
		C272.701,431.681,279.607,428.105,282.591,419.163z"/>
	<path fill="#CFCFCF" d="M313.69,412.916c12.471,9.898,12.393,15.46-1.244,23.617c-12.086,7.229-25.717,10.095-39.517,12.231
		c-18.504,2.863-37.142,1.849-55.65,1.214c-13.149-0.451-26.541-2.083-38.969-7.47c-5.634-2.376-11.166-4.968-16.311-8.286
		c-4.252-2.742-6.484-6.709-5.322-11.743c1.115-4.834,3.283-9.132,9.206-9.561c2.146,0.221,4.57-0.661,6.208,1.57
		c0.141,1.04,0.018,2.048-0.272,3.059c-2.73,9.528-1.333,12.731,7.889,16.961c9.925,4.553,20.334,7.645,31.204,8.773
		c28.907,3.001,57.653,3.721,85.387-7.255c2.407-0.953,4.808-1.917,6.997-3.328c5.123-3.303,7.882-7.445,4.988-13.692
		c-0.652-1.408-1.08-2.916-0.797-4.518C309.122,412.258,311.546,413.137,313.69,412.916z"/>
	<path fill="#D0D0D0" d="M307.487,414.487c7.354,10.607,6.269,15.858-5.257,21.239c-15.803,7.377-32.576,10.332-50.018,9.961
		c-11.807-0.251-23.683,0.691-35.419-0.259c-11.982-0.971-24.057-2.587-35.232-7.74c-1.407-0.649-2.859-1.206-4.242-1.901
		c-11.369-5.719-12.583-10.692-5.229-21.299c4.907-0.005,9.551,1.182,14.032,3.103c-3.94-0.369-7,0.524-8.648,4.722
		c-1.718,4.375,1.511,6.304,3.889,8.337c8.801,7.525,19.907,9.966,30.741,11.543c22.784,3.316,45.657,3.215,68.139-2.91
		c6.503-1.772,12.847-4.091,17.971-8.634c2.348-2.082,5.606-3.964,3.887-8.338c-1.65-4.199-4.712-5.086-8.651-4.721
		C297.832,415.209,302.817,415.56,307.487,414.487z"/>
	<path fill="#D6D6D6" d="M282.591,419.163c1.086,7.941-3.286,12.012-10.212,14.009c-21.713,6.261-43.467,6.261-65.18,0
		c-6.925-1.997-11.298-6.068-10.212-14.009c3.631,0.545,7.592-1.312,10.913,1.496c15.442,16.019,48.363,16.016,63.776-0.006
		C275,417.858,278.958,419.704,282.591,419.163z"/>
	<path fill="#D8D8D8" d="M271.676,420.653c-0.83,6.125-4.617,9.448-10.33,11.031c-14.374,3.983-28.733,3.988-43.108,0.002
		c-5.714-1.584-9.5-4.906-10.338-11.027C229.158,420.657,250.417,420.655,271.676,420.653z"/>
	<path fill="#CDCDCC" d="M165.883,412.917c-10.913,8.722-10.539,16.229,1.127,23.163c3.727,2.215,8.145,3.212,11.3,6.428
		c-7.91-0.986-14.457-5.131-20.477-9.795c-5.875-4.551-5.873-10.202-1.061-16.084c1.45-1.773,2.949-3.506,4.426-5.258
		C162.912,411.421,164.742,411.126,165.883,412.917z"/>
	<path fill="#C1AF9D" d="M221.937,34.75c3.804-1.143,7.938-1.517,10.88-4.669c0.508-0.017,1.016-0.03,1.524-0.038
		c1.548-1.162,3.429-0.768,5.138-0.957c6.391-0.706,7.036,0.178,5.726,7.179c-2.544,2.617-4.007,5.773-4.65,9.337
		c-1.307,6.237-1.3,12.475-0.003,18.713c0.574,7.518,5.38,13.404,7.796,20.212c-0.377,0.135-0.754,0.271-1.132,0.41
		c-1.244-0.044-2.352-0.475-3.365-1.181c-4.614-6.17-6.973-13.389-9.523-20.529c-0.719-7.491-1.716-15.014,2.19-22.037
		c0.398-0.617,0.876-1.193,1.302-1.804c0.976-1.401,2.637-2.963,1.444-4.611c-1.267-1.751-3.189-0.281-4.792,0.15
		c-0.962,0.259-1.798,0.842-2.666,1.325c-11.75,7.683-13.258,11.973-8.604,24.61c1.98,4.767,4.94,8.882,8.26,12.787
		c2.319,2.728,4.609,5.534,3.929,9.535c-0.253,0.792-0.752,1.37-1.492,1.744c-10.36-11.035-21.104-21.881-19.2-38.96
		c0.096-2.471,1.028-4.616,2.556-6.526C219.286,38.346,220.826,36.763,221.937,34.75z"/>
	<path fill="#C5BCB1" d="M245.233,128.105c-1,1.888-1.814,3.823-1.539,6.036c-3.666,3.004-7.328,3.114-10.985-0.016
		c3.04-7.39,3.239-15.334,4.721-22.919c1.839-9.418-1.792-16.004-4.667-23.542c0.646-0.549,1.39-0.775,2.234-0.681
		c4.354,2.23,5.898,6.423,7.443,10.623c2.366,6.015-0.193,12.082,0.176,18.129C242.878,120.006,242.233,124.429,245.233,128.105z"/>
	<path fill="#CBBCAD" d="M234.359,87.64c-0.532,0.008-1.063,0.016-1.595,0.024c-6.385-8-13.008-15.88-17.201-25.319
		c-2.352-5.295-5.116-10.803-1.49-16.742c0.537-0.757,1.068-0.717,1.592,0.014c-1.493,16.676,9.769,27.239,18.662,38.937
		C235.159,85.575,235.315,86.602,234.359,87.64z"/>
	<path fill="#9B866B" d="M232.709,134.126c3.662,0.006,7.323,0.012,10.985,0.016c1.021,0.169,2.043,0.34,3.064,0.511
		c-1.581,1.221-3.142,2.468-4.747,3.656c-5.516,4.085-8.057,3.19-10.737-3.754C231.748,134.395,232.226,134.252,232.709,134.126z"/>
	<path fill="#CBBDAE" d="M215.664,45.618c-0.53-0.004-1.061-0.009-1.592-0.014c-0.075-2.641,0.27-5.065,3.18-6.167
		C216.723,41.498,216.194,43.558,215.664,45.618z"/>
	<path fill="#C2B4A0" d="M248.347,84.527c3.793,6.229,4.75,13.116,4.685,20.238c0,0-0.04-0.007-0.04-0.007
		c-1.313,1-2.548,0.864-3.722-0.248c-1.687-6.593-3.625-13.177-0.964-19.983L248.347,84.527z"/>
	<path fill="#CBBCAD" d="M245.205,36.265c0.769-9.741-6.706-5.084-10.864-6.221c1.12-1.822,2.957-1.491,4.663-1.552
		c3.116-1.173,6.231-1.179,9.345,0.006C248.435,31.545,247.742,34.278,245.205,36.265z"/>
	<path fill="#CBBDAE" d="M240.551,64.315c-2.464-6.238-2.483-12.475,0.004-18.712C240.554,51.84,240.553,58.077,240.551,64.315z"/>
	<path fill="#CBBDAE" d="M248.349,28.497c-3.115-0.002-6.23-0.004-9.345-0.006C242.12,26.154,245.235,26.131,248.349,28.497z"/>
	<path fill="#BDB2A3" d="M249.905,104.759c1.029-0.001,2.059-0.001,3.088-0.002c5.332,6.855-1.437,11.53-3.086,17.127
		c-1.455,2.151-3.293,4.015-4.674,6.222c0,0,0.001-0.002,0.001-0.002c-4.636,0.4-4.432-2.671-4.75-5.986
		c-0.805-8.396,2.273-16.751,0.083-25.122C245.258,97.685,245.997,103.129,249.905,104.759z"/>
	<path fill="#C5BCB1" d="M245.233,128.107c0.126-3.15,2.177-4.853,4.674-6.222C249.785,125.038,247.738,126.745,245.233,128.107z"/>
	<path fill="#A69580" d="M281.034,146.784c-1.556,0.519-3.113,1.039-4.669,1.558c-4.358-1.197-8.643,0.167-12.96,0.393
		c-0.49,0.026-0.955,0.383-1.449,0.525c-5.242,1.502-11.819,1.226-14.107-2.662c-2.125-3.612,3.702-7.435,6.722-10.708
		c6.297,2.026,12.592,4.062,18.894,6.074C276.417,142.907,279.489,143.642,281.034,146.784z"/>
	<path fill="#E4E5E4" d="M236.627,254.289c-11.021-1.598-22.172-3.141-28.16-14.555c-4.019-7.662-2.576-16.704,3.387-22.973
		c10.547-11.091,34.863-12.599,46.715-2.897c14.816,12.129,12.517,28.958-5.317,36.79
		C248.127,252.905,242.687,255.142,236.627,254.289z"/>
	<path fill="#8B7355" d="M172.084,160.804c7.061,1.042,13.659,3.593,20.235,6.214c-2.593-0.002-5.186-0.004-7.779-0.006
		C181.027,163.66,175.279,164.793,172.084,160.804z"/>
	<path fill="#DAD9D9" d="M239.739,422.287c4.66-0.009,9.322-0.086,13.978,0.031c1.655,0.042,4.084-0.849,4.625,1.542
		c0.504,2.227-1.747,3.225-3.372,3.507c-5.782,1.005-11.783,2.827-17.398,2.074c-4.692-0.629-9.949,0.331-14.297-2.606
		c-1.073-0.725-2.356-1.433-2.128-2.897c0.256-1.639,1.787-1.62,3.058-1.628C229.384,422.278,234.561,422.296,239.739,422.287z"/>
	<path fill="#B6A18C" d="M221.882,61.185c-6.15-12.09-3.523-19.525,9.349-26.464c8.782-1.68,9.192-1.351,7.758,6.222
		c-5.22,7.231-2.349,15.534-3.093,23.357c0.734,3.523,2.08,6.847,3.403,10.169c0.885,2.221,0.813,4.139-1.49,5.276
		c-2.276,1.124-3.039-0.868-4.206-2.244C229.255,72.372,225.249,67.011,221.882,61.185z"/>
	<path fill="#B8A48D" d="M221.882,61.185c4.152,5.192,8.32,10.372,12.444,15.587c0.77,0.973,1.235,2.593,2.818,1.964
		c1.884-0.748,1.477-2.318,0.956-3.917c-1.113-3.418-2.672-6.763-2.204-10.519c3.106,6.227,6.212,12.453,9.318,18.679
		c1.392,3.609,5.217,8.233,0.133,10.607c-4.475,2.09-6.564-3.388-8.852-6.588c-0.882-1.234-1.15-2.839-2.148-4.039
		c-0.289-5.785-5.563-8.464-8.068-12.881C224.639,67.186,222.134,64.757,221.882,61.185z"/>
	<path fill="#BFAE99" d="M234.347,82.96c3.237,1.448,3.668,5.39,6.447,7.25c1.376,0.921,2.167,3.401,4.208,2.47
		c2.38-1.085,1.652-3.235,0.968-5.265c-0.473-1.404-0.519-2.952-0.756-4.436c1.031,0.516,2.062,1.032,3.092,1.548
		c0.75,6.727,2.292,13.391,1.598,20.233c-6.826,1.879-5.962-5.492-9.338-7.762c-1.608-3.425-3.556-6.624-6.209-9.357
		c-0.011-1.029-0.021-2.057-0.032-3.086C234.333,84.023,234.34,83.491,234.347,82.96z"/>
	<path fill="#BFAE99" d="M238.988,40.943c1.061-6.621-3.297-6.486-7.758-6.222c0.831-0.531,1.598-1.315,2.505-1.544
		c2.557-0.646,5.645-3.249,7.654-0.245C243.302,35.793,241.398,38.728,238.988,40.943z"/>
	<path fill="#B4A898" d="M252.265,108.935c-1.667,3.393-2.195,8.191-6.058,8.546c-3.818,0.351-2.349-4.392-3.203-6.766
		c-1.313-3.652,1.681-4.217,4.426-4.368C249.541,106.232,251.494,106.554,252.265,108.935z"/>
	<path fill="#E7E7E7" d="M236.642,246.655c-2.274-0.345-4.654-0.374-6.804-1.091c-8.454-2.817-14.76-10.356-14.123-16.557
		c0.725-7.055,8.832-13.193,18.385-13.698c4.629-0.245,9.393-0.576,13.692,1.608c5.562,2.824,9.677,6.975,9.846,13.66
		c0.173,6.839-3.854,11.039-9.697,13.567C244.414,245.67,240.698,246.977,236.642,246.655z"/>
	<path fill="#B29C85" d="M232.48,68.654c-8.549-7.486-11.862-16.901-8.787-23.141c1.568-3.184,4.36-6.214,7.656-5.063
		c2.944,1.029,1.795,5.159,0.805,7.571C229.426,54.662,233.131,61.112,232.48,68.654z"/>
	<path fill="#E9EAEA" d="M248.337,230.426c0.17,4.956-5.024,10.003-10.813,9.53c-5.482-0.448-10.939-2.23-12.342-8.572
		c-0.974-4.402,5.714-9.694,11.835-9.882C243.472,221.305,248.151,224.994,248.337,230.426z"/>
</g>
</svg>
