<?xml version="1.0" encoding="utf-8"?>
<!-- Generator: Adobe Illustrator 17.0.0, SVG Export Plug-In . SVG Version: 6.00 Build 0)  -->
<!DOCTYPE svg PUBLIC "-//W3C//DTD SVG 1.1//EN" "http://www.w3.org/Graphics/SVG/1.1/DTD/svg11.dtd">
<svg version="1.1" id="Layer_1" xmlns="http://www.w3.org/2000/svg" xmlns:xlink="http://www.w3.org/1999/xlink" x="0px" y="0px"
	 width="500px" height="500px" viewBox="0 0 500 500" enable-background="new 0 0 500 500" xml:space="preserve">
<g>
	<path display="none" fill="#F5F4F4" d="M502.5,251.875c0,81.875-0.043,163.75,0.121,245.625c0.009,4.281-0.841,5.123-5.121,5.119
		c-163.75-0.14-327.5-0.14-491.25,0c-4.28,0.004-5.123-0.839-5.119-5.119c0.14-163.75,0.14-327.5,0-491.25
		C1.128,1.97,1.97,1.128,6.25,1.131c163.75,0.14,327.5,0.14,491.25,0c4.28-0.004,5.129,0.838,5.121,5.119
		C502.457,88.125,502.5,170,502.5,251.875z M251.894,29.89c-74.993,0-149.987,0.193-224.978-0.223
		C16.539,29.609,8.317,36.1,8.349,48.096C8.685,171.417,8.662,294.739,8.385,418.06c-0.027,12.038,6.713,18.578,18.494,18.558
		c149.569-0.248,299.138-0.248,448.707,0c11.863,0.02,18.553-6.55,18.527-18.522c-0.274-123.321-0.155-246.643-0.189-369.965
		c-0.004-13.105-5.26-18.235-18.302-18.237C401.047,29.886,326.471,29.89,251.894,29.89z M250.799,493.908c0,0.014,0,0.028,0,0.041
		c36.663,0,73.326,0.026,109.99-0.022c7.24-0.009,9.925-3.214,7.396-8.926c-3.538-7.988-7.472-15.8-11.158-23.724
		c-2.182-4.692-5.711-6.387-10.887-6.377c-63.119,0.113-126.238,0.117-189.357,0.006c-6.243-0.011-10.029,2.541-12.319,8.206
		c-2.664,6.591-5.563,13.092-8.54,19.55c-4.018,8.717-2.593,11.231,6.76,11.237C178.722,493.921,214.761,493.908,250.799,493.908z"
		/>
	<path fill="#141717" d="M251.894,29.89c74.576,0,149.152-0.004,223.729,0.004c13.041,0.002,18.298,5.131,18.302,18.237
		c0.034,123.322-0.085,246.644,0.189,369.965c0.027,11.972-6.663,18.542-18.527,18.522c-149.569-0.248-299.138-0.247-448.707,0
		c-11.781,0.02-18.521-6.52-18.494-18.558c0.277-123.321,0.3-246.643-0.036-369.964C8.317,36.1,16.539,29.609,26.917,29.667
		C101.907,30.083,176.901,29.89,251.894,29.89z M251.429,40.157c-74.151,0-148.302-0.003-222.454,0.003
		c-9.188,0.001-10.014,0.717-10.016,9.881c-0.027,122.266-0.027,244.532,0,366.797c0.002,8.464,0.888,9.313,9.344,9.314
		c148.719,0.017,297.438,0.018,446.157-0.003c8.044-0.001,9.07-0.965,9.073-8.95c0.033-122.475,0.034-244.949,0.001-367.424
		c-0.002-8.847-0.893-9.613-9.651-9.614C399.732,40.154,325.58,40.157,251.429,40.157z"/>
	<path fill="#202020" d="M250.799,493.908c-36.038,0-72.077,0.013-108.115-0.009c-9.352-0.005-10.778-2.52-6.76-11.237
		c2.976-6.458,5.876-12.959,8.54-19.55c2.29-5.665,6.075-8.217,12.319-8.206c63.119,0.111,126.238,0.108,189.357-0.006
		c5.175-0.009,8.704,1.686,10.887,6.377c3.686,7.924,7.62,15.736,11.158,23.724c2.53,5.712-0.156,8.916-7.396,8.926
		c-36.663,0.048-73.326,0.022-109.99,0.022C250.799,493.936,250.799,493.922,250.799,493.908z M147.981,482.735
		c69.093,0,137.818,0,206.843,0c-1.033-2.664-1.809-4.532-2.487-6.434c-2.863-8.04-7.427-11.434-17.035-11.314
		c-53.518,0.67-107.056,0.783-160.572,0.001c-13.53-0.198-23.534,1.441-26.744,16.306
		C147.944,481.493,147.981,481.71,147.981,482.735z"/>
	<path fill="#7E8F91" d="M251.429,40.157c74.151,0,148.303-0.003,222.454,0.004c8.758,0.001,9.649,0.766,9.651,9.614
		c0.033,122.475,0.032,244.949-0.001,367.424c-0.002,7.985-1.029,8.949-9.073,8.95c-148.719,0.021-297.438,0.021-446.157,0.003
		c-8.456-0.001-9.342-0.85-9.344-9.314c-0.026-122.266-0.027-244.532,0-366.797c0.002-9.164,0.828-9.88,10.016-9.881
		C103.127,40.154,177.278,40.157,251.429,40.157z M250.63,409.789c68.75,0,137.499,0.003,206.249-0.004
		c9.434-0.001,10.351-0.928,10.351-10.343c0.003-110.416,0.002-220.832,0.001-331.248c0-9.724-0.957-10.745-10.677-10.746
		c-136.874-0.014-273.748-0.014-410.622,0.001c-9.72,0.001-10.662,1.01-10.662,10.757c-0.002,110.208-0.002,220.415,0,330.623
		c0,10.335,0.619,10.957,10.988,10.958C114.381,409.791,182.506,409.789,250.63,409.789z"/>
	<path fill="#7E8F91" d="M147.981,482.735c0-1.025-0.038-1.242,0.005-1.44c3.21-14.866,13.214-16.504,26.744-16.306
		c53.515,0.782,107.053,0.669,160.572-0.001c9.608-0.12,14.172,3.274,17.035,11.314c0.677,1.902,1.453,3.77,2.487,6.434
		C285.799,482.735,217.074,482.735,147.981,482.735z"/>
	<path fill="#052E38" d="M250.63,409.789c-68.125,0-136.249,0.002-204.374-0.002c-10.369-0.001-10.988-0.623-10.988-10.958
		c-0.001-110.208-0.001-220.415,0-330.623c0-9.747,0.942-10.756,10.662-10.757c136.874-0.015,273.748-0.015,410.622-0.001
		c9.719,0.001,10.677,1.022,10.677,10.746c0.002,110.416,0.002,220.832-0.001,331.248c0,9.415-0.917,10.342-10.351,10.343
		C388.129,409.793,319.38,409.789,250.63,409.789z M251.039,342.851c0-0.061,0-0.122,0-0.184c33.528,0,67.056,0.099,100.583-0.072
		c8.073-0.041,14.072-6.39,14.393-14.509c0.271-6.864,0.099-13.744,0.341-20.61c0.192-5.416-2.737-8.107-7.569-8.926
		c-11.167-1.893-19.559,0.446-21.255,5.676c-0.125,0.386-0.1,0.821-0.142,1.234c-0.651,6.343-4.279,8.62-10.49,8.606
		c-50.399-0.113-100.798-0.036-151.196-0.084c-8.244-0.008-10.562-2.472-10.566-10.891c-0.026-46.65-0.024-93.3,0.002-139.95
		c0.004-7.546,3.271-10.857,10.819-10.862c50.191-0.033,100.381,0.018,150.572-0.061c6.384-0.01,9.867,2.703,10.913,9.043
		c0.681,4.126,3.367,6.441,7.724,6.453c4.373,0.012,8.749,0.107,13.119-0.01c5.203-0.139,7.981-2.86,7.978-8.148
		c-0.003-5.413-0.041-10.826-0.128-16.239c-0.239-14.822-5.211-19.795-19.938-19.803c-44.984-0.025-89.968-0.01-134.952-0.01
		c-18.952,0-37.904-0.073-56.854,0.081c-3.117,0.025-6.199-0.275-9.404,1.586c-7.033,4.083-8.7,10.063-8.686,17.558
		c0.114,59.979,0.284,119.959-0.126,179.935c-0.08,11.742,5.157,20.719,20.528,20.389
		C188.134,342.378,219.592,342.851,251.039,342.851z M284.798,248.268c22.47,0,44.939-0.024,67.409,0.018
		c5.182,0.01,10.022-1.244,12.805-5.728c6.374-10.269-0.657-24.021-12.539-24.078c-45.146-0.216-90.294-0.147-135.441,0.033
		c-4.098,0.016-8.963,0.238-11.643,4.063c-4.295,6.129-3.924,13.121-1.074,19.59c2.351,5.336,7.732,6.11,13.074,6.107
		C239.859,248.261,262.329,248.268,284.798,248.268z"/>
	<path fill="#F4EFDE" d="M251.039,342.851c-31.447,0-62.905-0.473-94.337,0.203c-15.371,0.33-20.608-8.647-20.528-20.389
		c0.411-59.976,0.24-119.956,0.126-179.935c-0.014-7.496,1.653-13.475,8.686-17.558c3.206-1.861,6.287-1.561,9.404-1.586
		c18.95-0.154,37.903-0.081,56.854-0.081c44.984,0,89.968-0.015,134.952,0.01c14.728,0.008,19.7,4.98,19.938,19.803
		c0.087,5.412,0.125,10.826,0.128,16.239c0.003,5.289-2.775,8.01-7.978,8.148c-4.37,0.117-8.746,0.022-13.119,0.01
		c-4.357-0.012-7.043-2.327-7.724-6.453c-1.046-6.339-4.529-9.053-10.913-9.043c-50.19,0.079-100.381,0.027-150.572,0.061
		c-7.548,0.005-10.815,3.315-10.819,10.862c-0.026,46.65-0.028,93.3-0.002,139.95c0.005,8.419,2.322,10.884,10.566,10.891
		c50.399,0.048,100.798-0.028,151.196,0.084c6.211,0.014,9.84-2.263,10.49-8.606c0.042-0.413,0.017-0.848,0.142-1.234
		c1.696-5.23,10.087-7.57,21.255-5.676c4.832,0.819,7.76,3.51,7.569,8.926c-0.243,6.865-0.071,13.746-0.341,20.61
		c-0.32,8.12-6.319,14.468-14.393,14.509c-33.527,0.171-67.055,0.072-100.583,0.072C251.039,342.729,251.039,342.79,251.039,342.851
		z"/>
	<path fill="#F4EFDE" d="M284.798,248.268c-22.47,0-44.939-0.007-67.409,0.005c-5.341,0.003-10.723-0.772-13.074-6.107
		c-2.85-6.469-3.221-13.461,1.074-19.59c2.68-3.824,7.546-4.046,11.643-4.063c45.147-0.18,90.295-0.25,135.441-0.033
		c11.881,0.057,18.913,13.809,12.539,24.078c-2.783,4.484-7.623,5.737-12.805,5.728
		C329.738,248.244,307.268,248.268,284.798,248.268z"/>
</g>
</svg>
